<svg width="18" height="18" viewBox="0 0 18 18" fill="none" xmlns="http://www.w3.org/2000/svg">
<path d="M17.9959 18.0001V17.9994H18.0004V11.3979C18.0004 8.16841 17.3052 5.68066 13.5297 5.68066C11.7147 5.68066 10.4967 6.67666 9.99943 7.62091H9.94693V5.98216H6.36719V17.9994H10.0947V12.0489C10.0947 10.4822 10.3917 8.96716 12.3319 8.96716C14.2437 8.96716 14.2722 10.7552 14.2722 12.1494V18.0001H17.9959Z" fill="#D0CFCF"/>
<path d="M0.296875 5.98242H4.02887V17.9996H0.296875V5.98242Z" fill="#D0CFCF"/>
<path d="M2.1615 0C0.968248 0 0 0.968248 0 2.1615C0 3.35474 0.968248 4.34324 2.1615 4.34324C3.35474 4.34324 4.32299 3.35474 4.32299 2.1615C4.32224 0.968248 3.35399 0 2.1615 0V0Z" fill="#D0CFCF"/>
</svg>
