<svg width="15" height="18" viewBox="0 0 15 18" fill="none" xmlns="http://www.w3.org/2000/svg">
<path d="M7.75117 0C2.69014 0.000750011 0 3.16204 0 6.60909C0 8.20737 0.916201 10.2016 2.3832 10.8339C2.80168 11.0177 2.74629 10.7934 3.10631 9.45088C3.13478 9.33913 3.12016 9.24238 3.02785 9.13813C0.930817 6.77335 2.6186 1.91178 7.45192 1.91178C14.4469 1.91178 13.1399 11.3484 8.66891 11.3484C7.51654 11.3484 6.65803 10.4664 6.92959 9.37513C7.25883 8.07536 7.90348 6.67809 7.90348 5.74133C7.90348 3.3803 4.2956 3.73055 4.2956 6.85885C4.2956 7.82561 4.64639 8.47812 4.64639 8.47812C4.64639 8.47812 3.48556 13.0502 3.27017 13.9044C2.90553 15.3505 3.3194 17.6912 3.35556 17.893C3.37787 18.004 3.50556 18.0393 3.57711 17.9478C3.69173 17.8015 5.09488 15.85 5.48797 14.4392C5.63106 13.9254 6.21801 11.8404 6.21801 11.8404C6.60495 12.5214 7.7204 13.0914 8.90892 13.0914C12.4445 13.0914 15 10.0614 15 6.30159C14.9877 2.69704 11.8237 0 7.75117 0V0Z" fill="#D0CFCF"/>
</svg>
