<svg width="22" height="18" viewBox="0 0 22 18" fill="none" xmlns="http://www.w3.org/2000/svg">
<path d="M21.75 2.13092C20.9412 2.49231 20.0793 2.73185 19.1808 2.84815C20.1052 2.286 20.8107 1.40262 21.1424 0.337846C20.2805 0.861231 19.329 1.23092 18.3149 1.43723C17.4965 0.549693 16.3302 0 15.0578 0C12.5892 0 10.6018 2.04092 10.6018 4.54292C10.6018 4.90292 10.6317 5.24908 10.7051 5.57862C6.99806 5.39446 3.71789 3.58477 1.51434 0.828C1.12964 1.50785 0.903984 2.286 0.903984 3.12369C0.903984 4.69662 1.69922 6.09092 2.88459 6.89815C2.1682 6.88431 1.46541 6.67246 0.87 6.33877C0.87 6.35262 0.87 6.37062 0.87 6.38862C0.87 8.59569 2.41561 10.4289 4.44244 10.8512C4.07948 10.9523 3.68391 11.0008 3.27338 11.0008C2.98791 11.0008 2.69972 10.9842 2.4292 10.9232C3.00694 12.7218 4.64634 14.0442 6.59569 14.0871C5.07863 15.2958 3.15239 16.0242 1.06711 16.0242C0.701438 16.0242 0.350719 16.0075 0 15.9618C1.97517 17.2592 4.31602 18 6.84037 18C15.0456 18 19.5315 11.0769 19.5315 5.076C19.5315 4.87523 19.5247 4.68139 19.5152 4.48892C20.4001 3.84923 21.1437 3.05031 21.75 2.13092Z" fill="#D0CFCF"/>
</svg>
