<svg width="466" height="402" viewBox="0 0 466 402" fill="none" xmlns="http://www.w3.org/2000/svg">
<path d="M447.78 371.28H411.834V371.55H447.78V371.28Z" fill="#EBEBEB"/>
<path d="M318.975 374.2H309.544V374.469H318.975V374.2Z" fill="#EBEBEB"/>
<path d="M410.748 361.274H389.921V361.543H410.748V361.274Z" fill="#EBEBEB"/>
<path d="M63.3055 363.083H16.4307V363.353H63.3055V363.083Z" fill="#EBEBEB"/>
<path d="M79.8476 363.083H72.9775V363.353H79.8476V363.083Z" fill="#EBEBEB"/>
<path d="M203.853 367.629H102.181V367.899H203.853V367.629Z" fill="#EBEBEB"/>
<path d="M226.907 34.979C211.126 52.3747 203.312 76.0715 204.647 99.4452C205.982 122.819 214.664 145.202 225.235 166.13C234.493 184.463 245.552 205.252 237.977 224.328C233.744 234.991 224.096 242.887 213.427 247.281C202.758 251.676 191.059 252.947 179.522 253.518C159.856 254.498 139.897 253.604 120.763 258.182C101.629 262.76 82.7875 274.07 75.3856 292.176C66.6705 313.514 76.5686 339.042 94.0205 354.197C111.483 369.352 134.904 375.858 157.881 379.079C190.071 383.581 223.054 382.45 254.854 375.761C280.391 370.386 305.516 361.242 326.354 345.634C347.181 330.026 363.439 307.45 367.9 281.922C372.35 256.394 363.711 228.162 343.328 211.984C334.852 205.252 324.628 200.652 317.194 192.8C309.76 184.948 305.983 171.871 312.885 163.556C317.444 158.063 325.128 156.382 332.247 155.531C367.271 151.384 406.071 158.547 435.363 139.041C452.131 127.871 462.985 108.827 465.372 88.9217C467.76 69.0163 463.43 47.4737 450.796 31.8338C416.359 -10.7451 269.082 -11.5099 226.907 34.979Z" fill="#E5F7FF"/>
<path d="M230.825 402C347.043 402 441.257 396.541 441.257 389.807C441.257 383.073 347.043 377.614 230.825 377.614C114.606 377.614 20.3926 383.073 20.3926 389.807C20.3926 396.541 114.606 402 230.825 402Z" fill="#E5F7FF"/>
<path d="M213.537 218.876L216.25 203.333L221.579 204.874L213.537 218.876Z" fill="#00BDD3"/>
<path d="M215.327 223.843L230.587 219.47L228.47 214.375L215.327 223.843Z" fill="#00BDD3"/>
<path d="M218.042 218.005L226.735 201.686L232.585 205.726L218.042 218.005Z" fill="#00BDD3"/>
<path d="M74.4215 242.476H67.5514C67.2476 242.476 67.0088 242.24 67.0088 241.938C67.0088 241.637 67.2476 241.4 67.5514 241.4H74.4215C74.7254 241.4 74.9642 241.637 74.9642 241.938C74.9642 242.24 74.7254 242.476 74.4215 242.476Z" fill="#00BDD3"/>
<path d="M62.9827 242.476H28.5456C28.2417 242.476 28.0029 242.24 28.0029 241.938C28.0029 241.637 28.2417 241.4 28.5456 241.4H62.9718C63.2757 241.4 63.5145 241.637 63.5145 241.938C63.5145 242.24 63.2757 242.476 62.9827 242.476Z" fill="#00BDD3"/>
<path d="M185.079 304.8C184.949 304.8 184.818 304.757 184.71 304.66C184.493 304.455 184.471 304.121 184.677 303.895L187.89 300.427C188.096 300.211 188.432 300.201 188.66 300.395C188.877 300.599 188.899 300.933 188.693 301.159L185.48 304.628C185.372 304.746 185.231 304.8 185.079 304.8Z" fill="#00BDD3"/>
<path d="M155.657 332.407C155.462 332.407 155.266 332.299 155.168 332.116C155.038 331.847 155.136 331.524 155.407 331.394C165.468 326.343 181.401 307.45 181.563 307.256C181.759 307.03 182.095 306.997 182.323 307.191C182.551 307.385 182.584 307.719 182.388 307.945C181.726 308.732 166.141 327.193 155.885 332.353C155.831 332.385 155.744 332.407 155.657 332.407Z" fill="#00BDD3"/>
<path d="M233.752 326.504L241.501 320.138L221.987 301.762L213.663 308.817L233.752 326.504Z" fill="#F6B69E"/>
<path d="M247.773 317.693C247.252 317.37 246.189 317.521 245.092 317.822C244.571 317.973 244.029 318.145 243.551 318.318C243.171 318.458 242.824 318.598 242.531 318.716C242.097 318.899 241.782 319.039 241.674 319.093C241.576 319.115 241.511 319.212 241.5 319.319C241.489 319.352 241.511 319.395 241.533 319.427C241.565 319.481 241.619 319.524 241.684 319.535C242.781 319.826 243.909 320.009 245.049 320.095C245.602 320.17 246.178 320.127 246.709 319.977C246.742 319.966 246.764 319.966 246.785 319.955C247.089 319.858 247.393 319.729 247.665 319.567C248.023 319.276 248.218 318.835 248.175 318.372C248.164 318.102 248.023 317.833 247.773 317.693ZM247.665 318.393C247.719 318.706 247.578 319.018 247.317 319.201C247.111 319.373 246.818 319.481 246.438 319.556C246.069 319.632 245.624 319.653 245.114 319.621C244.517 319.6 243.823 319.503 243.052 319.363C242.889 319.33 242.716 319.298 242.542 319.266C243.464 318.824 244.43 318.49 245.429 318.264C245.961 318.145 246.492 318.059 247.035 318.005C247.198 318.005 247.35 318.038 247.491 318.113C247.61 318.178 247.675 318.285 247.665 318.393Z" fill="#00BDD3"/>
<path d="M244.226 313.643C243.726 313.718 243.27 314.02 242.988 314.429C242.901 314.559 242.825 314.688 242.771 314.839C242.12 316.228 242.456 318.329 242.532 318.716C242.543 318.749 242.543 318.759 242.543 318.77C242.554 318.856 242.619 318.932 242.706 318.953C242.749 318.975 242.804 318.986 242.858 318.964C242.891 318.964 242.923 318.943 242.956 318.91C243.14 318.759 243.336 318.555 243.553 318.307C243.867 317.941 244.193 317.499 244.475 317.014C245.148 315.927 245.626 314.699 245.333 314.063C245.213 313.815 244.931 313.525 244.226 313.643ZM244.877 314.279C245.061 314.699 244.703 315.657 244.15 316.605C243.791 317.208 243.379 317.79 242.967 318.221C242.88 317.542 242.793 316.25 243.129 315.291C243.194 315.076 243.292 314.871 243.412 314.709C243.596 314.451 243.857 314.246 244.16 314.16L244.312 314.139C244.768 314.063 244.855 314.225 244.877 314.279Z" fill="#00BDD3"/>
<path d="M240.494 319.686L230.769 324.554C230.378 324.738 230.194 325.168 230.313 325.567L233.179 334.593C233.493 335.477 234.47 335.94 235.371 335.627C235.425 335.606 235.49 335.584 235.545 335.563C252.204 329.757 257.305 325.642 259.052 324.705C264.012 322.023 261.223 318.533 259.378 318.964C251.075 320.935 248.286 320.429 244.694 319.503C242.773 319.212 241.08 319.395 240.494 319.686Z" fill="#0E1F3D"/>
<path opacity="0.2" d="M221.987 301.773L231.875 310.465L223.539 317.52L213.663 308.828L221.987 301.773Z" fill="black"/>
<path d="M218.918 317.456L231.345 306.082L228.61 301.31L214.24 313.557L218.918 317.456Z" fill="#00BDD3"/>
<path opacity="0.5" d="M218.918 317.456L231.345 306.082L228.61 301.31L214.24 313.557L218.918 317.456Z" fill="white"/>
<path d="M226.656 302.98L224.995 304.401L222.51 306.523L221.023 307.773L216.693 311.467L215.857 312.167C215.857 312.167 198.156 302.269 188.301 293.813C181.55 288.018 180.942 285.864 180.237 286.403C170.719 293.587 142.544 318.426 126.579 331.351C126.058 331.405 125.548 331.459 125.016 331.491C116.485 332.116 109.778 331.179 104.569 329.208C104.514 322.336 110.44 306.286 110.929 304.735C110.929 304.735 134.491 281.491 172.661 261.844C173.041 261.65 173.432 261.499 173.812 261.338C174.311 261.122 174.8 260.918 175.31 260.735C177.307 259.981 179.26 259.517 181.159 259.42C182.863 259.334 184.524 259.636 186.119 260.196C187.02 260.508 187.91 260.896 188.768 261.348C189.527 261.725 190.265 262.167 190.982 262.62C192.165 263.363 193.304 264.192 194.379 265.011C196.81 266.874 215.249 290.453 225.169 301.332C225.169 301.342 225.169 301.342 225.169 301.342C225.69 301.956 226.189 302.495 226.656 302.98Z" fill="#00BDD3"/>
<g opacity="0.1">
<g opacity="0.1">
<g opacity="0.1">
<g opacity="0.1">
<path opacity="0.1" d="M226.656 302.98L224.995 304.401L222.51 306.523L221.023 307.773L216.693 311.467L215.857 312.167C215.857 312.167 198.156 302.269 188.301 293.813C181.55 288.018 180.942 285.864 180.237 286.403C170.719 293.587 142.544 318.426 126.579 331.351C126.058 331.405 125.548 331.459 125.016 331.491C116.485 332.116 109.778 331.179 104.569 329.208C104.514 322.336 110.44 306.286 110.929 304.735C110.929 304.735 134.491 281.491 172.661 261.844C173.041 261.65 173.432 261.499 173.812 261.338C174.311 261.122 174.8 260.918 175.31 260.735C177.307 259.981 179.26 259.517 181.159 259.42C182.863 259.334 184.524 259.636 186.119 260.196C187.02 260.508 187.91 260.896 188.768 261.348C189.527 261.725 190.265 262.167 190.982 262.62C192.165 263.363 193.304 264.192 194.379 265.011C196.81 266.874 215.249 290.453 225.169 301.332C225.169 301.342 225.169 301.342 225.169 301.342C225.69 301.956 226.189 302.495 226.656 302.98Z" fill="black"/>
</g>
</g>
</g>
</g>
<path d="M100.923 203.755C102.41 210.465 103.973 220.256 99.3389 224.856C105.091 234.916 112.005 244.276 119.938 252.753C130.108 235.207 120.47 224.36 120.47 224.36C112.851 222.744 112.97 219.696 114.164 214.44L100.923 203.755Z" fill="#F6B69E"/>
<path d="M94.6279 225.706C95.1923 223.886 96.3536 222.313 97.9273 221.225C99.4467 220.062 115.249 219.89 119.362 221.225C121.761 221.979 123.801 223.573 125.104 225.717L94.6279 225.706Z" fill="#00BDD3"/>
<path d="M167.529 252.419L171.621 250.567L171.827 257.18C171.827 257.18 169.917 258.871 167.822 259.517C165.815 260.131 163.904 258.3 164.404 256.275C164.805 254.595 165.956 253.173 167.529 252.419Z" fill="#F6B69E"/>
<path d="M176.841 252.441L176.624 254.864C176.57 255.618 176.016 256.243 175.278 256.405L171.783 257.18L171.577 250.567L175.126 250.62C176.07 250.61 176.83 251.353 176.841 252.29C176.841 252.344 176.841 252.387 176.841 252.441Z" fill="#F6B69E"/>
<path d="M115.639 271.237C121.782 274.242 129.314 275.965 136.705 274.727C145.409 273.272 160.571 264.601 167.17 259.625L164.945 256.34C161.656 257.04 134.784 270.59 117.419 258.333C114.185 256.049 101.487 246.646 96.9933 246.84C89.7108 247.163 90.3403 254.735 93.466 257.891C97.1452 261.575 110.614 268.781 115.639 271.237Z" fill="#F6B69E"/>
<g opacity="0.2">
<path opacity="0.2" d="M176.623 254.864C176.558 255.607 176.015 256.243 175.277 256.405L171.804 257.18V257.191C171.804 257.191 169.894 258.882 167.81 259.528C167.593 259.593 167.376 259.636 167.17 259.636L167.159 259.647C160.56 264.623 145.409 273.283 136.705 274.737C129.314 275.965 121.782 274.253 115.639 271.237C110.614 268.781 97.1235 261.575 93.466 257.891C90.3403 254.735 89.7108 247.174 96.9933 246.84C101.476 246.646 114.185 256.049 117.419 258.333C133.981 270.019 159.182 258.236 164.337 256.512C164.348 256.437 164.359 256.351 164.381 256.275C164.587 255.435 164.967 254.66 165.509 253.992C166.03 253.335 166.725 252.785 167.506 252.408L171.555 250.577L171.598 250.566L175.114 250.61C176.048 250.599 176.818 251.353 176.818 252.29C176.818 252.333 176.818 252.376 176.818 252.43L176.623 254.864Z" fill="black"/>
<path opacity="0.2" d="M171.61 250.567L171.577 250.578V250.567H171.61Z" fill="black"/>
</g>
<path d="M138.399 236.531C147.613 256.684 126.243 262.436 136.033 295.483L89.5811 296.592C89.8959 278.884 96.2341 282.686 87.8772 249.392C87.1717 246.57 85.9887 238.481 89.0168 231.113C90.1998 228.248 92.2944 225.814 95.0403 224.338C98.4699 222.496 113.577 223.94 120.469 224.392C127.936 223.358 137.031 234.011 138.399 236.531Z" fill="#00BDD3"/>
<path opacity="0.5" d="M138.399 236.531C147.613 256.684 126.243 262.436 136.033 295.483L89.5811 296.592C89.8959 278.884 96.2341 282.686 87.8772 249.392C87.1717 246.57 85.9887 238.481 89.0168 231.113C90.1998 228.248 92.2944 225.814 95.0403 224.338C98.4699 222.496 113.577 223.94 120.469 224.392C127.936 223.358 137.031 234.011 138.399 236.531Z" fill="white"/>
<path d="M129.52 196.548C129.39 197.431 129.748 198.153 130.301 198.229C130.855 198.304 131.419 197.69 131.539 196.839C131.669 195.988 131.311 195.234 130.757 195.159C130.204 195.094 129.639 195.708 129.52 196.548Z" fill="#0E1F3D"/>
<path d="M130.509 195.18L132.636 194.89C132.636 194.879 131.355 196.321 130.509 195.18Z" fill="#0E1F3D"/>
<path d="M129.662 197.712C129.662 197.712 130.574 201.568 131.92 203.539C130.639 204.422 128.794 203.668 128.794 203.668L129.662 197.712Z" fill="#A02724"/>
<path d="M132.591 190.624C132.754 190.56 132.873 190.409 132.906 190.236C132.949 189.956 132.754 189.709 132.483 189.666C130.876 189.386 129.227 189.903 128.076 191.044C127.87 191.238 127.859 191.551 128.044 191.755C128.239 191.96 128.554 191.971 128.76 191.788C128.782 191.766 128.803 191.744 128.825 191.712C129.759 190.829 131.061 190.441 132.331 190.667C132.418 190.678 132.515 190.667 132.591 190.624Z" fill="#0E1F3D"/>
<path d="M101.411 189.579C100.532 200.081 99.9352 204.498 104.45 210.605C111.244 219.793 124.442 218.587 128.446 208.548C132.071 199.521 132.907 183.871 123.248 178.248C116.367 174.198 107.489 176.449 103.397 183.267C102.247 185.185 101.563 187.35 101.411 189.579Z" fill="#F6B69E"/>
<path d="M128.686 207.912C127.882 207.244 127.275 206.361 126.927 205.349C126.895 205.241 126.96 205.123 127.079 205.079C127.188 205.047 127.307 205.112 127.34 205.23C127.654 206.103 128.175 206.867 128.848 207.481L128.686 207.912Z" fill="#0E1F3D"/>
<path d="M93.8681 175.921C89.8307 181.349 87.9965 182.76 92.989 197.205C94.9968 203.01 100.825 210.701 103.658 211.401C108.737 212.672 113.675 209.128 117.495 205.563C120.838 202.439 124.04 199.068 126.069 194.986C128.099 190.903 128.848 186.013 127.176 181.78C125.353 177.181 118.917 173.077 114.098 172.064C108.433 170.88 97.2217 171.407 93.8681 175.921Z" fill="#0E1F3D"/>
<path d="M125.516 195.88C125.516 195.88 126.786 198.045 125.18 199.661L125.212 196.774L125.516 195.88Z" fill="#0E1F3D"/>
<path d="M125.496 195.88C125.496 195.88 125.962 199.198 123.162 200.437L124.671 196.85L125.496 195.88Z" fill="#0E1F3D"/>
<path d="M106.862 210.174C106.862 210.174 103.78 211.564 104.225 214.569L106.471 211.391L106.862 210.174Z" fill="#0E1F3D"/>
<path d="M106.979 210.239C106.979 210.239 104.635 212.651 106.176 215.29L107.077 211.51L106.979 210.239Z" fill="#0E1F3D"/>
<path d="M129.737 191.551C130.833 190.43 131.951 189.289 132.754 187.942C133.568 186.596 134.057 185.002 133.818 183.461C133.503 181.458 131.984 179.81 130.215 178.797C128.446 177.796 126.416 177.343 124.419 176.902C123.442 176.686 122.346 176.482 121.489 176.999C120.653 177.494 120.295 178.539 120.349 179.497C120.392 180.456 120.783 181.361 121.13 182.255C122.509 185.756 123.377 189.353 124.039 193.037C124.376 194.9 124.115 196.128 125.971 195.417C127.208 194.933 128.793 192.52 129.737 191.551Z" fill="#0E1F3D"/>
<path d="M115.13 196.731C115.022 199.166 115.879 201.535 117.529 203.334C119.732 205.715 122.532 204.153 123.335 201.202C124.073 198.552 123.791 194.125 120.904 192.854C118.017 191.572 115.282 193.769 115.13 196.731Z" fill="#F6B69E"/>
<path d="M238.226 331.351L246.604 323.24L230.39 303.001L220.253 308.936L238.226 331.351Z" fill="#F6B69E"/>
<path d="M255.157 320.741C254.223 320.418 252.313 321.452 250.87 322.368C250.501 322.594 250.175 322.82 249.893 323.014L249.871 323.025C249.817 323.068 249.774 323.1 249.73 323.133C249.405 323.359 249.166 323.531 249.079 323.596C248.97 323.65 248.927 323.757 248.949 323.865C248.981 323.973 249.079 324.048 249.188 324.059C250.186 324.102 251.185 324.07 252.183 323.962C252.411 323.941 252.628 323.919 252.845 323.887C253.572 323.833 254.267 323.596 254.864 323.197C255.081 323.057 255.287 322.906 255.461 322.734C255.775 322.357 255.884 321.84 255.732 321.366C255.667 321.097 255.45 320.86 255.157 320.741ZM255.222 321.517C255.33 321.829 255.276 322.185 255.048 322.443C254.766 322.788 254.202 323.068 253.399 323.262C252.78 323.413 252.031 323.52 251.152 323.564C250.805 323.574 250.436 323.596 250.056 323.596C250.175 323.499 250.295 323.413 250.425 323.327C250.512 323.262 250.598 323.208 250.685 323.143C251.847 322.336 253.127 321.7 254.484 321.258C254.647 321.215 254.82 321.215 254.994 321.269C255.103 321.302 255.189 321.398 255.222 321.517Z" fill="#00BDD3"/>
<path d="M250.51 317.305C250 317.499 249.598 317.909 249.403 318.404C248.719 320.063 249.728 322.616 249.902 323.014C249.902 323.025 249.902 323.025 249.913 323.025C249.913 323.047 249.913 323.057 249.924 323.057C249.967 323.143 250.043 323.208 250.141 323.219C250.195 323.23 250.249 323.219 250.304 323.197C250.336 323.187 250.38 323.154 250.39 323.133C250.401 323.111 250.412 323.111 250.423 323.1C250.575 322.906 250.738 322.659 250.879 322.368C251.682 320.871 252.431 318.372 251.769 317.51C251.573 317.262 251.215 317.025 250.51 317.305ZM250.239 322.4C249.946 321.549 249.425 319.74 249.902 318.619C250.032 318.307 250.26 318.038 250.564 317.876L250.716 317.801C251.183 317.618 251.302 317.779 251.346 317.833C251.812 318.458 251.085 321.011 250.239 322.4Z" fill="#00BDD3"/>
<path opacity="0.2" d="M229.533 301.762L237.173 311.467L226.841 317.176L219.081 307.73L229.533 301.762Z" fill="black"/>
<path d="M89.157 293.081L88.0825 297.26C87.9197 297.594 88.3213 297.906 88.8531 297.896L136.694 296.775C137.117 296.754 137.454 296.549 137.475 296.291L136.281 291.907C136.314 291.627 135.934 291.39 135.478 291.401L89.9276 292.726C89.6237 292.693 89.3307 292.833 89.157 293.081Z" fill="#0E1F3D"/>
<path d="M131.725 297.271L130.466 297.4C130.216 297.389 130.01 297.325 130.01 297.174L129.988 291.777C129.988 291.627 130.194 291.476 130.444 291.444L131.703 291.304C131.953 291.314 132.159 291.379 132.159 291.54L132.181 296.937C132.17 297.088 131.974 297.239 131.725 297.271Z" fill="#00BDD3"/>
<path d="M114.599 297.486L113.34 297.616C113.09 297.605 112.895 297.54 112.884 297.389L112.873 291.993C112.873 291.842 113.079 291.691 113.329 291.659L114.577 291.519C114.827 291.53 115.033 291.594 115.033 291.756L115.055 297.152C115.055 297.325 114.848 297.454 114.599 297.486Z" fill="#00BDD3"/>
<path d="M114.599 297.486L113.34 297.616C113.09 297.605 112.895 297.54 112.884 297.389L112.873 291.993C112.873 291.842 113.079 291.691 113.329 291.659L114.577 291.519C114.827 291.53 115.033 291.594 115.033 291.756L115.055 297.152C115.055 297.325 114.848 297.454 114.599 297.486Z" fill="#00BDD3"/>
<path d="M235.946 306.103L233.83 307.288L233.819 307.299L230.183 309.335L226.916 311.155L226.905 311.166L223.552 313.04V313.051L222.271 313.772C222.271 313.772 221.978 313.568 221.468 313.191C221.273 313.051 221.045 312.889 220.784 312.695C219.992 312.103 218.874 311.273 217.583 310.25C217.583 310.25 217.583 310.25 217.583 310.239C210.832 304.951 198.818 294.535 195.247 285.078C192.935 287.813 190.168 291.239 186.998 295.03C173.356 311.37 152.138 334.432 126.644 337.437C126.123 337.512 125.613 337.555 125.081 337.598C116.561 338.331 109.843 337.48 104.612 335.573C91.3821 330.769 87.692 319.223 88.6037 309.41V309.378C88.6796 304.789 89.5913 296.603 89.5913 296.603L137.855 296.657C144.66 288.46 158.303 275.62 172.26 267.52C172.585 267.316 172.922 267.122 173.258 266.949C173.671 266.702 174.094 266.486 174.506 266.26C179.043 263.793 183.58 261.887 187.878 260.853C188.833 260.627 189.777 260.433 190.71 260.293C191.687 260.142 192.653 260.056 193.597 260.013V260.024C200.207 259.722 205.948 262.167 209.844 268.716L235.241 305.08L235.946 306.103Z" fill="#00BDD3"/>
<path d="M209.899 256.329L156.566 258.516L158.129 224.834L211.462 222.647L209.899 256.329Z" fill="#00BDD3"/>
<path d="M209.281 258.99L156.719 261.144C155.232 261.209 154.071 260.045 154.147 258.57L155.699 225.103C155.764 223.617 157.034 222.367 158.521 222.303L211.083 220.148C212.57 220.084 213.731 221.236 213.655 222.723L212.103 256.189C212.038 257.676 210.768 258.925 209.281 258.99Z" fill="#0E1F3D"/>
<path d="M209.899 256.329L156.566 258.516L158.129 224.834L211.462 222.647L209.899 256.329Z" fill="#00BDD3"/>
<path opacity="0.9" d="M209.899 256.329L156.566 258.516L158.129 224.834L211.462 222.647L209.899 256.329Z" fill="white"/>
<path opacity="0.1" d="M177.059 221.548L168.246 260.648L171.752 260.508L180.445 221.408L177.059 221.548Z" fill="white"/>
<path opacity="0.1" d="M182.461 221.333L173.648 260.432L180.605 260.142L189.299 221.052L182.461 221.333Z" fill="white"/>
<path d="M192.589 259.41L210.344 258.914C210.648 260.961 209.769 261.726 208.64 261.758L202.964 261.898L199.176 261.984L193.283 262.146L156.719 263.201L156.426 260.649L192.589 259.41Z" fill="#00BDD3"/>
<path d="M192.588 259.41L210.344 258.914C210.648 260.961 209.769 261.726 208.64 261.758L202.964 261.898L199.176 261.984L193.283 262.146L148.025 263.525C147.504 263.535 147.027 263.255 146.799 262.781C146.397 261.941 146.994 260.95 147.938 260.918L192.588 259.41Z" fill="#00BDD3"/>
<path opacity="0.2" d="M192.588 259.41L210.344 258.914C210.648 260.961 209.769 261.726 208.64 261.758L202.964 261.898L199.176 261.984L193.283 262.146L148.025 263.525C147.504 263.535 147.027 263.255 146.799 262.781C146.397 261.941 146.994 260.95 147.938 260.918L192.588 259.41Z" fill="black"/>
<path opacity="0.2" d="M210.345 258.914L210.454 259.625C210.617 260.724 209.77 261.726 208.641 261.758L202.965 261.898L192.427 262.275L192.6 259.41L210.345 258.914Z" fill="black"/>
<path opacity="0.2" d="M118.375 237.522C118.375 237.522 115.868 242.596 123.107 255.995L126.135 261.456C127.133 263.255 133.776 259.582 135.751 256.211C135.751 256.211 123.063 248.649 118.375 237.522Z" fill="black"/>
<path d="M179.77 253.141L184.816 251.665L184.002 259.409C184.002 259.409 176.959 264.084 174.517 259.614L175.493 257.115C176.253 255.219 177.816 253.765 179.77 253.141Z" fill="#F6B69E"/>
<path d="M190.611 254.713L189.981 257.503C189.797 258.365 189.059 259 188.169 259.076L183.969 259.399L184.783 251.654L188.907 252.301C190.003 252.441 190.785 253.442 190.633 254.53C190.633 254.595 190.622 254.649 190.611 254.713Z" fill="#F6B69E"/>
<path d="M137.746 266.239C141.262 270.978 146.211 274.931 152.039 276.062C158.898 277.398 172.096 267.768 178.282 261.531C177.967 258.903 178.152 257.481 175.504 257.115C175.504 257.115 168.699 262.07 155.849 265.043C151.703 266.002 148.935 261.79 145.31 255.661C143.509 252.602 137.67 240.075 135.466 237.285C131.939 232.804 121.878 236.014 125.872 246.796C127.554 251.331 134.87 262.361 137.746 266.239Z" fill="#F6B69E"/>
<path d="M133.991 229.95C141.132 236.456 144.605 247.96 144.605 247.96L127.935 258.042C127.935 258.042 115.747 241.066 117.917 235.153C119.632 230.564 122.812 227.548 126.99 227.29C129.584 227.139 132.081 228.205 133.991 229.95Z" fill="#00BDD3"/>
<path d="M95.7677 298.143L94.5088 298.176C94.2592 298.143 94.0638 298.057 94.0746 297.896L94.5305 292.521C94.5522 292.359 94.7584 292.23 95.008 292.219L96.267 292.187C96.5166 292.219 96.712 292.316 96.7011 292.467L96.2453 297.853C96.2344 298.003 96.0174 298.165 95.7677 298.143Z" fill="#00BDD3"/>
<path d="M220.222 316.056L236.458 307.999L235.069 302.269L216.554 310.66L220.222 316.056Z" fill="#00BDD3"/>
<path opacity="0.5" d="M220.222 316.056L236.458 307.999L235.069 302.269L216.554 310.66L220.222 316.056Z" fill="white"/>
<path d="M245.953 322.357L234.753 325.729C234.308 325.847 234.026 326.267 234.08 326.72L235.426 336.801C235.599 337.792 236.544 338.471 237.542 338.299C237.607 338.288 237.672 338.277 237.737 338.256C256.448 335.164 262.624 331.761 264.632 331.082C270.373 329.154 268.083 324.942 266.042 325.072C256.882 325.632 254.028 324.587 250.392 322.95C248.449 322.271 246.626 322.163 245.953 322.357Z" fill="#0E1F3D"/>
<path d="M95.3434 189.45C91.9789 189.978 88.647 187.414 87.5943 184.204C86.5415 180.995 87.4097 177.408 89.1354 174.489C90.4052 172.334 98.7296 167.229 101.823 172.981C107.966 184.431 95.3434 189.45 95.3434 189.45Z" fill="#0E1F3D"/>
<path d="M209.422 234.194L176.591 235.584L176.743 232.352L209.574 230.963L209.422 234.194Z" fill="#00BDD3"/>
<g opacity="0.7">
<path opacity="0.7" d="M209.422 234.194L176.591 235.584L176.743 232.352L209.574 230.963L209.422 234.194Z" fill="white"/>
</g>
<path d="M209.225 238.686L176.395 240.065L176.536 236.833L209.366 235.455L209.225 238.686Z" fill="#00BDD3"/>
<g opacity="0.7">
<path opacity="0.7" d="M209.225 238.686L176.395 240.065L176.536 236.833L209.366 235.455L209.225 238.686Z" fill="white"/>
</g>
<path d="M209.021 243.167L176.19 244.556L176.342 241.325L209.173 239.935L209.021 243.167Z" fill="#00BDD3"/>
<g opacity="0.7">
<path opacity="0.7" d="M209.021 243.167L176.19 244.556L176.342 241.325L209.173 239.935L209.021 243.167Z" fill="white"/>
</g>
<path d="M208.816 247.659L175.985 249.037L176.137 245.806L208.968 244.427L208.816 247.659Z" fill="#00BDD3"/>
<g opacity="0.7">
<path opacity="0.7" d="M208.816 247.659L175.985 249.037L176.137 245.806L208.968 244.427L208.816 247.659Z" fill="white"/>
</g>
<path d="M208.621 252.139L175.79 253.529L175.931 250.297L208.762 248.908L208.621 252.139Z" fill="#00BDD3"/>
<g opacity="0.7">
<path opacity="0.7" d="M208.621 252.139L175.79 253.529L175.931 250.297L208.762 248.908L208.621 252.139Z" fill="white"/>
</g>
<path d="M163.341 237.388L160.706 237.501L160.752 238.577L163.387 238.464L163.341 237.388Z" fill="#00BDD3"/>
<g opacity="0.5">
<path opacity="0.5" d="M163.341 237.388L160.706 237.501L160.752 238.577L163.387 238.464L163.341 237.388Z" fill="white"/>
</g>
<path d="M163.219 240.501L160.584 240.614L160.63 241.689L163.265 241.576L163.219 240.501Z" fill="#00BDD3"/>
<g opacity="0.5">
<path opacity="0.5" d="M163.219 240.501L160.584 240.614L160.63 241.689L163.265 241.576L163.219 240.501Z" fill="white"/>
</g>
<path d="M163.088 243.602L160.453 243.715L160.499 244.79L163.134 244.677L163.088 243.602Z" fill="#00BDD3"/>
<g opacity="0.5">
<path opacity="0.5" d="M163.088 243.602L160.453 243.715L160.499 244.79L163.134 244.677L163.088 243.602Z" fill="white"/>
</g>
<path d="M162.971 246.715L160.336 246.829L160.382 247.904L163.017 247.791L162.971 246.715Z" fill="#00BDD3"/>
<g opacity="0.5">
<path opacity="0.5" d="M162.971 246.715L160.336 246.829L160.382 247.904L163.017 247.791L162.971 246.715Z" fill="white"/>
</g>
<path d="M162.84 249.817L160.205 249.93L160.251 251.006L162.886 250.893L162.84 249.817Z" fill="#00BDD3"/>
<g opacity="0.5">
<path opacity="0.5" d="M160.247 251.019L160.345 249.932L162.971 249.824L162.874 250.901L160.247 251.019Z" fill="white"/>
</g>
<path d="M162.715 252.923L160.08 253.034L160.125 254.11L162.76 253.998L162.715 252.923Z" fill="#00BDD3"/>
<g opacity="0.5">
<path opacity="0.5" d="M162.715 252.923L160.08 253.034L160.125 254.11L162.76 253.998L162.715 252.923Z" fill="white"/>
</g>
<path d="M166.075 234.42L160.627 236.435L160.681 235.013L163.698 234.528L160.714 234.323L160.768 232.902L166.075 234.42Z" fill="#00BDD3"/>
<path d="M199.339 229.282L176.591 230.241L176.699 228.001L199.448 227.042L199.339 229.282Z" fill="#00BDD3"/>
<g opacity="0.7">
<path opacity="0.7" d="M199.339 229.282L176.591 230.241L176.699 228.001L199.448 227.042L199.339 229.282Z" fill="white"/>
</g>
<path d="M168.648 230.446L165.316 230.586L166.662 229.735L167.031 230.08L167.433 229.724L168.648 230.446Z" fill="#00BDD3"/>
<path d="M166.532 229.637L165.187 230.487L165.284 228.517L166.532 229.637Z" fill="#00BDD3"/>
<path d="M168.866 228.453L168.758 230.326L167.531 229.615L168.866 228.453Z" fill="#00BDD3"/>
<path d="M167.077 229.274L167.003 229.352L167.011 229.36L167.084 229.282L167.077 229.274Z" fill="white"/>
<path d="M167.014 229.306L167.006 229.314L167.08 229.391L167.087 229.384L167.014 229.306Z" fill="white"/>
<path d="M168.864 228.269L167.432 229.561L167.03 229.906L166.661 229.572L165.413 228.452L165.315 228.356L168.864 228.269Z" fill="#00BDD3"/>
<path d="M163.353 228.615L160.718 228.727L160.732 229.05L163.366 228.938L163.353 228.615Z" fill="#00BDD3"/>
<path d="M163.356 229.432L160.721 229.544L160.734 229.867L163.369 229.755L163.356 229.432Z" fill="#00BDD3"/>
<path d="M163.353 230.264L160.718 230.376L160.732 230.699L163.366 230.587L163.353 230.264Z" fill="#00BDD3"/>
<path d="M316.252 66.6465H300.439C299.006 66.6465 297.845 65.494 297.845 64.0721C297.845 62.6503 299.006 61.4978 300.439 61.4978H316.252C317.684 61.4978 318.846 62.6503 318.846 64.0721C318.846 65.494 317.684 66.6465 316.252 66.6465Z" fill="#00BDD3"/>
<g opacity="0.7">
<path opacity="0.7" d="M316.252 66.6465H300.439C299.006 66.6465 297.845 65.494 297.845 64.0721C297.845 62.6503 299.006 61.4978 300.439 61.4978H316.252C317.684 61.4978 318.846 62.6503 318.846 64.0721C318.846 65.494 317.684 66.6465 316.252 66.6465Z" fill="white"/>
</g>
<path d="M374.261 119.544L313.635 230.273C312.854 231.695 311.052 232.223 309.62 231.447L206.46 175.814C205.028 175.038 204.496 173.25 205.277 171.828L284.126 27.8052C284.907 26.3834 286.709 25.8556 288.141 26.6312L357.656 64.1153L374.261 119.544Z" fill="#00BDD3"/>
<g opacity="0.2">
<path opacity="0.2" d="M374.261 119.544L313.635 230.273C312.854 231.695 311.052 232.223 309.62 231.447L206.46 175.814C205.028 175.038 204.496 173.25 205.277 171.828L284.126 27.8052C284.907 26.3834 286.709 25.8556 288.141 26.6312L357.656 64.1153L374.261 119.544Z" fill="white"/>
</g>
<path d="M340.249 144.397L263.204 103.146L260.628 107.886L337.673 149.137L340.249 144.397Z" fill="#00BDD3"/>
<path d="M329.721 163.764L252.676 122.513L250.099 127.253L327.145 168.504L329.721 163.764Z" fill="#00BDD3"/>
<path d="M319.195 183.131L242.149 141.88L239.573 146.62L316.618 187.871L319.195 183.131Z" fill="#00BDD3"/>
<path d="M357.744 64.0724L339.467 97.4742C338.685 98.896 339.217 100.684 340.65 101.46L374.197 119.555L357.744 64.0724Z" fill="#00BDD3"/>
<path opacity="0.7" d="M357.744 64.0724L339.467 97.4742C338.685 98.896 339.217 100.684 340.65 101.46L374.197 119.555L357.744 64.0724Z" fill="white"/>
<path d="M390.064 115.818L329.438 226.547C328.657 227.968 326.855 228.496 325.422 227.721L222.263 172.087C220.831 171.311 220.299 169.523 221.08 168.102L299.928 24.0785C300.71 22.6567 302.511 22.1289 303.944 22.9045L373.459 60.3886L390.064 115.818Z" fill="#00BDD3"/>
<g opacity="0.5">
<path opacity="0.5" d="M390.064 115.818L329.438 226.547C328.657 227.968 326.855 228.496 325.422 227.721L222.263 172.087C220.831 171.311 220.299 169.523 221.08 168.102L299.928 24.0785C300.71 22.6567 302.511 22.1289 303.944 22.9045L373.459 60.3886L390.064 115.818Z" fill="white"/>
</g>
<path d="M353.998 139.568L281.065 100.522C279.925 99.9192 278.514 100.339 277.896 101.46L277.537 102.117C276.93 103.248 277.353 104.648 278.482 105.262L351.415 144.308C352.554 144.911 353.965 144.491 354.584 143.371L354.942 142.714C355.561 141.583 355.138 140.172 353.998 139.568Z" fill="#00BDD3"/>
<path d="M343.472 158.935L270.538 119.889C269.399 119.286 267.988 119.706 267.369 120.826L267.011 121.483C266.403 122.614 266.827 124.015 267.955 124.629L340.889 163.675C342.028 164.278 343.439 163.858 344.058 162.737L344.416 162.08C345.034 160.949 344.611 159.549 343.472 158.935Z" fill="#00BDD3"/>
<path d="M332.944 178.302L260.011 139.256C258.871 138.653 257.461 139.073 256.842 140.193L256.484 140.85C255.876 141.981 256.299 143.381 257.428 143.995L330.361 183.041C331.501 183.644 332.912 183.224 333.53 182.104L333.888 181.447C334.507 180.316 334.084 178.916 332.944 178.302Z" fill="#00BDD3"/>
<path d="M373.556 60.3455L355.269 93.7472C354.487 95.1691 355.019 96.9571 356.452 97.7326L389.999 115.828L373.556 60.3455Z" fill="#00BDD3"/>
<path opacity="0.7" d="M373.556 60.3455L355.269 93.7472C354.487 95.1691 355.019 96.9571 356.452 97.7326L389.999 115.828L373.556 60.3455Z" fill="white"/>
<path d="M369.366 9.5802L374.467 32.0599C355.148 37.3271 337.816 56.2953 325.345 74.2295C320.429 81.3063 316.261 89.5247 313.146 98.2172C313.146 98.2172 352.098 63.2428 373.577 61.1962L372.557 98.3572C372.557 98.3572 394.827 55.3043 438.088 39.5459C438.077 39.5352 401.849 13.641 369.366 9.5802Z" fill="#EA5924"/>
<path d="M106.568 255.177L116.412 366.843H100.545L89.9521 246.678H97.2238C102.097 246.678 106.145 250.362 106.568 255.177Z" fill="#00BDD3"/>
<path opacity="0.2" d="M106.665 256.178L116.422 366.843H100.555L89.9619 246.678H96.2133C101.651 246.678 106.187 250.803 106.665 256.178Z" fill="black"/>
<path d="M96.2569 253.949L106.209 366.843H11.7433L1.91032 255.338C1.4979 250.685 5.19883 246.678 9.9091 246.678H88.2472C92.4257 246.678 95.8987 249.834 96.2569 253.949Z" fill="#00BDD3"/>
<path opacity="0.2" d="M96.3638 255.177L106.208 366.843H11.7418L2.03904 256.803C1.5615 251.364 5.88106 246.678 11.3836 246.678H87.0084C91.8815 246.678 95.9406 250.362 96.3638 255.177Z" fill="white"/>
<path d="M262.507 366.843H12.1792L9.45508 335.875H249.755C255.301 335.875 260.185 340.335 260.662 345.839L262.507 366.843Z" fill="#00BDD3"/>
<path opacity="0.2" d="M262.507 366.843H12.1792L9.45508 335.875H249.755C255.301 335.875 260.185 340.335 260.662 345.839L262.507 366.843Z" fill="white"/>
<path d="M273.989 378.702H9.23742C5.80782 378.702 3.01855 375.944 3.01855 372.53C3.01855 369.126 5.79697 366.358 9.23742 366.358H273.989C277.419 366.358 280.208 369.115 280.208 372.53C280.208 375.934 277.419 378.702 273.989 378.702Z" fill="#00BDD3"/>
<path opacity="0.2" d="M273.989 378.702H120.297C116.867 378.702 114.078 375.944 114.078 372.53C114.078 369.126 116.857 366.358 120.297 366.358H273.989C277.418 366.358 280.207 369.115 280.207 372.53C280.207 375.934 277.418 378.702 273.989 378.702Z" fill="black"/>
<path d="M12.71 378.702L15.8465 389.301H22.1197L25.571 378.702H12.71Z" fill="#263238"/>
<path opacity="0.5" d="M12.71 378.702L15.8465 389.301H22.1197L25.571 378.702H12.71Z" fill="white"/>
<path d="M102.606 378.702L105.743 389.301H112.016L115.467 378.702H102.606Z" fill="#263238"/>
<path opacity="0.5" d="M102.606 378.702L105.743 389.301H112.016L115.467 378.702H102.606Z" fill="white"/>
<path d="M171.415 378.702L174.552 389.301H180.825L184.276 378.702H171.415Z" fill="#263238"/>
<path opacity="0.5" d="M171.415 378.702L174.552 389.301H180.825L184.276 378.702H171.415Z" fill="white"/>
<path d="M261.314 378.702L264.451 389.301H270.724L274.175 378.702H261.314Z" fill="#263238"/>
<path opacity="0.5" d="M261.314 378.702L264.451 389.301H270.724L274.175 378.702H261.314Z" fill="white"/>
</svg>
