<svg width="390" height="340" viewBox="0 0 390 340" fill="none" xmlns="http://www.w3.org/2000/svg">
<path d="M187.04 19.34H97.4902C95.2811 19.34 93.4902 21.1308 93.4902 23.34V106.39C93.4902 108.599 95.2811 110.39 97.4902 110.39H187.04C189.249 110.39 191.04 108.599 191.04 106.39V23.34C191.04 21.1308 189.249 19.34 187.04 19.34Z" fill="#112B46"/>
<path d="M187.04 19.34H97.4902C95.2811 19.34 93.4902 21.1308 93.4902 23.34V24.97C93.4902 27.1791 95.2811 28.97 97.4902 28.97H187.04C189.249 28.97 191.04 27.1791 191.04 24.97V23.34C191.04 21.1308 189.249 19.34 187.04 19.34Z" fill="#1D262D"/>
<path d="M169.95 24.27C169.95 25.24 169.16 26.04 168.18 26.04C167.2 26.04 166.41 25.25 166.41 24.27C166.41 23.29 167.2 22.5 168.18 22.5C169.16 22.5 169.95 23.29 169.95 24.27Z" fill="#606BF1"/>
<path d="M177.319 24.27C177.319 25.24 176.529 26.04 175.549 26.04C174.579 26.04 173.779 25.25 173.779 24.27C173.779 23.29 174.569 22.5 175.549 22.5C176.529 22.5 177.319 23.29 177.319 24.27Z" fill="#F4E041"/>
<path d="M184.171 24.4501C184.171 25.4201 183.381 26.2201 182.401 26.2201C181.421 26.2201 180.631 25.4301 180.631 24.4501C180.631 23.4801 181.421 22.6801 182.401 22.6801C183.381 22.6901 184.171 23.4801 184.171 24.4501Z" fill="#EA5924"/>
<path d="M124.65 37.9199H110.83V39.0799H124.65V37.9199Z" fill="#EA5924"/>
<path d="M140.871 37.9199H127.051V39.0799H140.871V37.9199Z" fill="#F4E041"/>
<path d="M136.539 44.1799H115.109V45.3399H136.539V44.1799Z" fill="#606BF1"/>
<path d="M150.97 44.1799H140.08V45.3399H150.97V44.1799Z" fill="#EA5924"/>
<path d="M131.951 50.4399H122.541V51.5999H131.951V50.4399Z" fill="#F4E041"/>
<path d="M168.611 50.4399H137.391V51.5999H168.611V50.4399Z" fill="#F4E041"/>
<path d="M165.53 56.6899H129.85V57.8499H165.53V56.6899Z" fill="#606BF1"/>
<path d="M131.91 62.95H120.93V64.11H131.91V62.95Z" fill="#EA5924"/>
<path d="M147.589 62.95H136.609V64.11H147.589V62.95Z" fill="#606BF1"/>
<path d="M126.8 95.3999H110.83V96.5599H126.8V95.3999Z" fill="#EA5924"/>
<path d="M148.37 95.3999H132.4V96.5599H148.37V95.3999Z" fill="#F4E041"/>
<path d="M169.361 95.3999H153.391V96.5599H169.361V95.3999Z" fill="#EA5924"/>
<path d="M146.329 89.1499H115.109V90.3099H146.329V89.1499Z" fill="#606BF1"/>
<path d="M182.409 89.1499H151.189V90.3099H182.409V89.1499Z" fill="#EA5924"/>
<path d="M153.521 82.8899H122.541V84.0499H153.521V82.8899Z" fill="#EA5924"/>
<path d="M164.841 82.8899H156.221V84.0499H164.841V82.8899Z" fill="#F4E041"/>
<path d="M132.18 76.6399H120.52V77.7999H132.18V76.6399Z" fill="#F4E041"/>
<path d="M150.029 76.6399H138.369V77.7999H150.029V76.6399Z" fill="#606BF1"/>
<path d="M169.189 76.6399H157.529V77.7999H169.189V76.6399Z" fill="#EA5924"/>
<path d="M150.379 70.3799H134.029V71.5399H150.379V70.3799Z" fill="#F4E041"/>
<path d="M127.86 70.3799H111.51V71.5399H127.86V70.3799Z" fill="#606BF1"/>
<path d="M103.281 36.8099H101.791V38.2999H103.281V36.8099Z" fill="#F9FBFC"/>
<path d="M103.281 91.35H101.791V88.32H103.281V91.35ZM103.281 83.77H101.791V80.74H103.281V83.77ZM103.281 76.19H101.791V73.16H103.281V76.19ZM103.281 68.61H101.791V65.58H103.281V68.61ZM103.281 61.03H101.791V58H103.281V61.03ZM103.281 53.46H101.791V50.43H103.281V53.46ZM103.281 45.88H101.791V42.85H103.281V45.88Z" fill="#F9FBFC"/>
<path d="M103.281 95.8999H101.791V97.3899H103.281V95.8999Z" fill="#F9FBFC"/>
<path d="M288.359 0H216.029C213.82 0 212.029 1.79086 212.029 4V45.51C212.029 47.7191 213.82 49.51 216.029 49.51H288.359C290.568 49.51 292.359 47.7191 292.359 45.51V4C292.359 1.79086 290.568 0 288.359 0Z" fill="#EA5924"/>
<path d="M243.23 19.92L233.67 24L243.23 28.02L241.98 30.91L230.52 25.79V22.25L241.98 17.1L243.23 19.92Z" fill="#F9FBFC"/>
<path d="M257.31 10.48L250.37 37.13L247.07 36.36L254.04 9.73999L257.31 10.48Z" fill="#F9FBFC"/>
<path d="M273.899 22.24V25.78L262.439 30.9L261.189 28.01L270.719 23.99L261.189 19.91L262.439 17.08L273.899 22.24Z" fill="#F9FBFC"/>
<path d="M331.35 95.9301H293.6C291.39 95.9301 289.6 97.7209 289.6 99.9301V124.53C289.6 126.739 291.39 128.53 293.6 128.53H331.35C333.559 128.53 335.35 126.739 335.35 124.53V99.9301C335.35 97.7209 333.559 95.9301 331.35 95.9301Z" fill="#606BF1"/>
<path d="M308.74 102.96C307.27 102.96 306.78 103.36 306.78 104.46V109.37C306.78 111.29 305.99 111.87 304.65 112.24C305.98 112.59 306.78 113.17 306.78 115.07V119.98C306.78 121.08 307.29 121.48 308.74 121.48V123.63C305.03 123.63 303.97 122.44 303.97 119.96V115.31C303.97 113.98 303.62 113.46 302.41 113.46V111C303.62 111 303.97 110.46 303.97 109.13V104.48C303.97 101.98 305.02 100.81 308.74 100.81V102.96Z" fill="#F1F2F2"/>
<path d="M320.981 104.48V109.13C320.981 110.46 321.331 111 322.571 111V113.45C321.331 113.45 320.981 113.96 320.981 115.3V119.95C320.981 122.43 319.931 123.62 316.211 123.62V121.47C317.661 121.47 318.171 121.07 318.171 119.97V115.06C318.171 113.17 318.961 112.58 320.301 112.23C318.971 111.86 318.171 111.27 318.171 109.36V104.45C318.171 103.35 317.681 102.95 316.211 102.95V100.8C319.931 100.81 320.981 101.98 320.981 104.48Z" fill="#F1F2F2"/>
<path d="M109.769 7.09998H66.4395C64.2303 7.09998 62.4395 8.89084 62.4395 11.1V37.43C62.4395 39.6391 64.2303 41.43 66.4395 41.43H109.769C111.979 41.43 113.769 39.6391 113.769 37.43V11.1C113.769 8.89084 111.979 7.09998 109.769 7.09998Z" fill="#F4E041"/>
<path d="M79.43 16.96C76.98 20.03 77.02 24.51 79.51 27.54C82.35 30.98 87.21 31.54 90.7 29.21L96.09 34.6C96.32 34.83 96.69 34.83 96.91 34.6L98.42 33.09C98.65 32.86 98.65 32.49 98.42 32.27L93.03 26.88C95.21 23.61 94.86 19.14 91.98 16.25C88.47 12.73 82.61 12.97 79.43 16.96ZM90.24 26.41C87.92 28.73 84.14 28.73 81.82 26.41C79.5 24.09 79.5 20.31 81.82 17.99C84.14 15.67 87.92 15.67 90.24 17.99C92.56 20.3 92.56 24.08 90.24 26.41Z" fill="#F9FBFC"/>
<path d="M263.081 113.15C262.971 114.28 261.421 126.12 249.241 126.12C236.461 126.12 238.601 113.47 238.601 113.47L238.581 113.39C239.831 113.13 241.171 113.04 242.591 113.2V107.21L257.101 99.09H257.631V113.07C257.631 113.07 259.931 112.8 263.081 113.15Z" fill="url(#paint0_radial_4676_52593)"/>
<path d="M256.041 72.34C258.101 74.43 259.651 77.13 260.401 80.42C261.791 86.57 260.481 93.07 258.701 98.99C258.401 100 258.051 101.03 257.421 101.88C256.971 102.49 256.401 102.99 255.831 103.49C253.251 105.74 250.671 107.99 248.091 110.24C246.341 111.77 235.601 113.04 233.551 111.57C225.651 105.92 224.131 89.55 225.711 81.18C228.341 67.31 246.181 62.34 256.041 72.34Z" fill="url(#paint1_radial_4676_52593)"/>
<path d="M251.601 90.11C251.711 88.77 253.081 87.31 254.461 88.18C255.891 89.08 255.551 91.45 254.961 92.76C254.501 93.78 252.941 94.91 251.891 93.95C251.011 93.15 252.381 92.21 252.421 91.48C252.461 90.82 251.151 90.35 251.691 89.65" fill="#F7B094"/>
<path d="M251.851 96.2899C253.291 96.7199 255.731 95.6199 256.351 93.6199C256.971 91.6099 256.901 89.3199 256.901 89.3199C256.901 89.3199 257.631 91.1399 257.251 94.0599C256.871 96.9799 255.851 99.7599 253.561 99.7999C251.271 99.8299 251.851 96.2899 251.851 96.2899Z" fill="#F7B094"/>
<path d="M250.081 94.21C250.031 94.23 249.981 94.25 249.921 94.26C249.031 94.38 248.671 93.31 248.541 92.63C248.231 91.05 248.281 89.46 248.221 87.86C248.211 87.46 248.241 86.96 248.081 86.59C247.581 85.44 246.241 84.7 245.841 83.51C245.371 82.13 246.701 80.76 246.171 79.25C245.361 76.94 242.391 76.41 240.241 76.43C237.021 76.47 233.881 77.07 230.701 77.56C227.341 78.08 223.061 78.57 220.101 76.45C216.541 73.89 215.051 67.23 217.711 63.58C219.161 61.59 221.911 60.53 224.321 60.48C226.871 60.42 229.031 61.94 231.371 62.71C233.241 63.32 235.041 61.54 236.781 61.19C238.971 60.75 239.901 63.14 241.841 63.21C243.721 63.27 245.571 61.8 247.401 61.47C251.051 60.8 250.841 64.47 253.281 65.72C254.801 66.5 256.771 66.03 258.311 66.82C259.481 67.42 259.641 68.48 259.901 69.67C260.121 70.7 260.131 71.9 260.471 72.88C260.781 73.76 261.521 74.32 262.101 75.01C262.731 75.76 263.141 76.65 263.461 77.59C264.171 79.69 264.331 81.95 264.131 84.15C263.801 87.84 262.621 91.47 261.391 94.94C260.591 97.19 260.291 99.54 259.071 101.67C258.741 102.24 257.271 103.92 256.731 102.67C256.611 102.4 256.631 102.1 256.651 101.81C256.811 99.49 258.971 84.52 253.311 86.32C252.121 86.7 251.321 87.69 250.881 88.82C250.351 90.17 250.311 91.53 250.381 92.96C250.391 93.16 250.391 93.37 250.391 93.57C250.381 93.83 250.311 94.09 250.081 94.21Z" fill="#3D3D7A"/>
<path d="M242.599 111.82C249.049 110.78 253.299 105.69 253.299 105.69C253.299 105.69 251.559 114.27 242.209 114.73L242.599 111.82Z" fill="#F7B094"/>
<path d="M253.18 228.8H262.41V317.33C262.41 318.23 261.68 318.96 260.78 318.96H254.81C253.91 318.96 253.18 318.23 253.18 317.33V228.8Z" fill="#0A2033"/>
<path d="M232.42 230.06H283.16V231.45C283.16 234.94 280.33 237.76 276.85 237.76H238.74C235.25 237.76 232.43 234.93 232.43 231.45V230.06H232.42Z" fill="#30475E"/>
<path d="M253.18 308.45H262.41V328.96C262.41 329.86 261.68 330.59 260.78 330.59H254.81C253.91 330.59 253.18 329.86 253.18 328.96V308.45Z" fill="#0A2033"/>
<path d="M209.91 325.19C209.91 328.17 212.33 330.59 215.31 330.59C218.29 330.59 220.71 328.17 220.71 325.19C220.71 322.21 218.29 319.79 215.31 319.79C212.33 319.79 209.91 322.21 209.91 325.19Z" fill="#0A2033"/>
<path d="M294.871 325.19C294.871 328.17 297.291 330.59 300.271 330.59C303.251 330.59 305.671 328.17 305.671 325.19C305.671 322.21 303.251 319.79 300.271 319.79C297.291 319.79 294.871 322.21 294.871 325.19Z" fill="#0A2033"/>
<path d="M248.514 317.791H267.074V301.571H248.514V317.791Z" fill="#30475E"/>
<path d="M209.91 321.61H305.67V319.73C305.67 316.55 303.09 313.98 299.92 313.98H215.66C212.48 313.98 209.91 316.55 209.91 319.73V321.61Z" fill="#F4E041"/>
<path d="M257.79 239.58H254.59V300.13H257.79V239.58Z" fill="#30475E"/>
<path d="M294.041 164.63C291.831 164.56 290.031 166.39 290.151 168.6C290.781 179.59 288.451 206.4 278.221 215.55C265.701 226.73 230.231 225.21 230.231 225.21C230.231 225.21 224.371 232.4 236.091 234C247.811 235.6 280.831 234.53 288.811 227.08C296.541 219.86 301.131 200.95 297.671 168.04C297.481 166.15 295.941 164.69 294.041 164.63Z" fill="#F4E041"/>
<path d="M227.581 300.13L231.801 309.75L218.871 315.42L214.641 305.77L227.581 300.13Z" fill="url(#paint2_radial_4676_52593)"/>
<path d="M288.53 193.22C287.73 194.82 230.3 193.25 224.88 193.75C224.88 193.75 189.73 210.53 184.68 226.23C184.17 227.81 184.03 229.9 184.18 232.4C185.59 254.51 210.77 307.46 210.77 307.46L214.64 305.77L227.58 300.13L229.42 299.33C229.42 299.33 209.45 239.82 213.44 236.62C217.43 233.42 262.7 225.44 278.4 221.19C294.12 216.92 288.53 193.22 288.53 193.22Z" fill="#56548C"/>
<path d="M178.301 302.6L179.311 317.05H165.201L164.201 302.57L178.301 302.6Z" fill="url(#paint3_radial_4676_52593)"/>
<path d="M224.59 193.26L224.08 193.48C224.08 193.48 165.24 201.74 155.65 218.24C149.42 228.98 161.48 307.43 161.48 307.43L182.3 307.48C182.3 307.48 179.19 242.13 180.22 238.49C181.39 234.34 183.38 232.83 184.18 232.4C184.02 229.91 184.16 227.81 184.68 226.23C189.73 210.52 224.88 193.75 224.88 193.75C224.77 193.67 224.67 193.5 224.59 193.26Z" fill="#3D3D7A"/>
<path d="M281.43 138.89L277.48 139.43C277.48 139.43 276.52 150.07 274.17 160.71L225.01 179.37L224.34 182.93C224.13 182.91 223.92 182.9 223.73 182.88C223.75 183.61 223.75 184.33 223.78 185C223.89 189.11 224.16 192.06 224.59 193.24C224.67 193.48 224.77 193.66 224.88 193.74C226.22 194.83 243.6 192.72 262.4 199.62C278.7 205.61 287.84 212.14 288.26 211.27C293.39 200.63 284.06 158.83 281.43 138.89Z" fill="#EA5924"/>
<path d="M276.3 163.27C274.99 169.56 271.6 182.09 264.96 183.77C256.28 185.97 239.51 185.86 223.79 185.02C223.76 184.35 223.76 183.63 223.74 182.9C223.93 182.92 224.14 182.93 224.35 182.95L225.02 179.39L274.18 160.73C276.53 150.09 277.49 139.45 277.49 139.45C277.49 139.45 277.49 139.51 277.51 139.63C277.59 141.25 278.26 153.97 276.3 163.27Z" fill="#F4675D"/>
<path d="M227.021 123.18C226.141 124.78 224.881 141.87 224.191 158.84L214.141 149.46C218.411 141.2 227.021 123.18 227.021 123.18Z" fill="#F4675D"/>
<path d="M221.001 171.24C212.521 172.71 204.721 173.97 204.721 173.97L204.701 174.39C195.261 166.85 180.891 145.49 180.891 145.49C180.891 145.49 185.191 140.33 186.261 138.97C186.421 138.76 209.841 154.88 211.041 154.74C211.341 154.71 212.541 152.6 214.141 149.47L224.191 158.85C224.031 162.89 223.901 166.92 223.821 170.74C222.881 170.9 221.941 171.06 221.001 171.24Z" fill="#F7B094"/>
<path d="M204.721 173.97L204.511 180.97H178.951C178.951 180.97 181.491 170.98 188.411 170.98C195.331 170.98 198.001 174.64 198.001 174.64L204.721 173.97Z" fill="url(#paint4_radial_4676_52593)"/>
<path d="M186.071 138.81L186.261 138.97C185.191 140.33 180.891 145.49 180.891 145.49L178.221 143.6C178.221 143.6 175.281 145.39 171.861 143.52C168.301 141.59 170.501 136.97 170.681 136.42C169.991 136.61 165.721 140.07 165.051 139.7C164.381 139.33 163.881 138.12 168.661 133.41C173.421 128.7 179.911 134.75 180.101 134.75L186.071 138.81Z" fill="#F7B094"/>
<path d="M172.42 142.72C172.42 142.72 171.39 144.65 173.22 145.49C175.05 146.33 178.61 146.93 180.14 146.79C181.67 146.65 182.89 144.5 182.89 144.5L178.26 140.15H174.55L172.42 142.72Z" fill="#F7B094"/>
<path d="M172.151 143.66C172.421 142.71 175.061 143.22 176.691 143.26C177.891 143.29 178.551 142.97 178.921 142.06C179.291 141.14 177.551 139.69 177.201 140.14C176.861 140.6 177.831 141.24 177.861 141.85C177.891 142.46 176.141 142.66 174.801 142.66C173.461 142.66 171.141 143.01 171.141 143.01L172.151 143.66Z" fill="#E8987C"/>
<path d="M271.68 169.79L246.64 160.92C244.82 164.32 242.87 166.88 240.94 167.39C238.02 168.16 230.95 169.48 223.83 170.73C222.89 170.91 221.94 171.07 221 171.24C212.52 172.71 204.72 173.97 204.72 173.97L204.7 174.39V174.66L204.51 180.97V182.57C204.51 182.57 213.01 182.14 223.73 182.89C238.73 183.96 258.08 184.6 264.49 181.58C267.49 180.16 269.89 175.49 271.78 169.74C271.74 169.75 271.71 169.77 271.68 169.79Z" fill="url(#paint5_radial_4676_52593)"/>
<path d="M246.64 160.92L271.68 169.79L270.54 173.13L245.76 162.5L246.64 160.92Z" fill="#F7B094"/>
<path d="M246.64 160.92C244.82 164.32 242.87 166.88 240.94 167.39C238.02 168.16 230.95 169.48 223.83 170.73C223.91 166.91 224.04 162.89 224.2 158.84C224.89 141.87 226.15 124.78 227.03 123.18C228.47 120.51 232.4 114.71 238.6 113.39L238.62 113.47C238.62 113.47 236.48 126.12 249.26 126.12C261.43 126.12 262.98 114.28 263.1 113.15C269.36 113.85 278.97 116.98 280.29 129.57C280.56 132.06 280.95 135.26 281.44 138.88L277.49 139.42C277.49 139.42 275.89 157.15 271.79 169.73C271.76 169.75 271.73 169.76 271.69 169.78L246.64 160.92Z" fill="#EA5924"/>
<path d="M246.379 158.61L256.379 134.41L249.009 159.59L246.379 158.61Z" fill="#6D4B35"/>
<path d="M263.08 113.15H257.63C257.63 113.15 249.88 121.66 244.89 121.66C239.9 121.66 242.59 113.19 242.59 113.19H240.16C233.17 113.19 227.3 118.44 226.51 125.38C226.42 126.17 226.34 126.93 226.27 127.61C225.74 132.76 246.6 136.51 246.6 136.51L257.34 135.91L263.86 123.18L265.16 117.97L263.08 113.15Z" fill="#EA5924"/>
<path d="M197.34 326.49C197.83 329.09 199.63 330.94 202.23 330.46L236.93 323.99C237.81 323.83 238.39 322.98 238.22 322.1L237.65 319.02C237.65 319.02 201.15 325.41 197.32 326.47L197.34 326.49Z" fill="#F1F2F2"/>
<path d="M207.66 317.75C208.02 317.44 208.37 317.12 208.73 316.81C209.43 316.19 210.11 315.58 210.77 314.99C211.12 314.68 211.47 314.37 211.79 314.07C212.42 313.5 213.02 312.97 213.56 312.49C213.94 312.14 214.3 311.81 214.63 311.52C215.22 310.99 215.71 310.55 216.05 310.25C216.34 309.99 216.78 309.97 217.08 310.23C218.51 311.43 223.12 314.17 231.47 309C231.87 308.75 232.39 308.88 232.61 309.3L237.66 319.01C237.66 319.01 201.16 325.4 197.33 326.46C198.58 325.68 203.24 321.65 207.66 317.75Z" fill="#3D3D7A"/>
<path d="M142.69 326.15C142.75 328.8 144.24 330.91 146.89 330.85L182.18 329.99C183.07 329.97 183.78 329.23 183.76 328.33L183.68 325.2C183.68 325.2 146.63 325.69 142.68 326.13L142.69 326.15Z" fill="#F1F2F2"/>
<path d="M154.27 319.17C154.68 318.92 155.07 318.67 155.48 318.41C156.27 317.91 157.04 317.42 157.78 316.94C158.17 316.69 158.57 316.44 158.93 316.2C159.65 315.74 160.32 315.31 160.92 314.92C161.36 314.64 161.76 314.37 162.13 314.13C162.8 313.7 163.35 313.35 163.73 313.1C164.06 312.89 164.49 312.94 164.75 313.24C165.97 314.65 170.08 318.09 179.15 314.32C179.58 314.14 180.08 314.35 180.22 314.79L183.66 325.18C183.66 325.18 146.61 325.67 142.66 326.11C144.04 325.55 149.28 322.31 154.27 319.17Z" fill="#3D3D7A"/>
<path d="M117.58 182.57L98.7402 132.31H152.39L171.24 182.57H117.58Z" fill="#ABB5BA"/>
<path d="M174.551 182.57H171.241L152.391 132.31L155.401 132.44L172.841 177.94L174.551 182.57Z" fill="#8495A0"/>
<path d="M173.509 182.57H208.959L208.859 179.4C208.859 179.4 173.369 179.4 172.779 179.4" fill="#8495A0"/>
<path d="M324.56 192.16H316.02V332.39H324.56V192.16Z" fill="#8495A0"/>
<path d="M278.229 192.16H269.689V332.39H278.229V192.16Z" fill="#ABB5BA"/>
<path d="M129.79 192.16H121.25V332.39H129.79V192.16Z" fill="#8495A0"/>
<path d="M83.4599 192.16H74.9199V332.39H83.4599V192.16Z" fill="#ABB5BA"/>
<path d="M333.1 192.69H66.7398C64.4498 192.69 62.5898 190.83 62.5898 188.54V186.72C62.5898 184.43 64.4498 182.57 66.7398 182.57H333.1C335.39 182.57 337.25 184.43 337.25 186.72V188.54C337.25 190.83 335.39 192.69 333.1 192.69Z" fill="#141B56"/>
<path d="M107.699 137.59L108.609 140.04H119.299L118.379 137.59H107.699Z" fill="#8495A0"/>
<path d="M214.139 149.46L213.379 150.95L224.189 162.12V158.84L214.139 149.46Z" fill="#E8987C"/>
<path d="M386 330H7C4.79086 330 3 331.791 3 334V336C3 338.209 4.79086 340 7 340H386C388.209 340 390 338.209 390 336V334C390 331.791 388.209 330 386 330Z" fill="#A5B7C6"/>
<path d="M366.44 257.44C364.72 265.77 365.24 279.95 354.23 282.19C351.26 282.79 348.4 280.74 346.68 278.38C344.42 275.3 343.88 268.77 343.92 265.04C343.95 262.08 344.96 258.78 345.28 255.8C345.63 252.58 345.92 249.35 346.29 246.13C347.64 234.52 353.71 224.79 363.97 219C364.76 222.81 366.57 226.04 368.17 229.69C368.9 231.36 369.55 233.12 370.03 234.87C370.87 237.97 369.85 241.09 369.1 244.06C367.98 248.44 367.35 253.01 366.44 257.44Z" fill="url(#paint6_linear_4676_52593)"/>
<path d="M352.361 282.47C352.441 281.77 352.521 281.07 352.621 280.38C353.941 280.38 355.311 279.63 356.411 279.06C358.331 278.07 359.881 276.64 361.381 275.12C361.461 275.04 361.321 274.91 361.241 274.98C359.741 276.24 358.181 277.46 356.401 278.29C355.401 278.75 353.951 279.51 352.721 279.66C352.841 278.83 352.961 277.99 353.101 277.16C354.471 276.99 355.731 276.09 356.891 275.4C358.861 274.23 360.561 272.72 362.321 271.26C362.341 271.24 362.321 271.21 362.301 271.23C359.611 273.18 356.611 275.96 353.211 276.57C353.391 275.53 353.581 274.49 353.801 273.46C353.811 273.41 353.821 273.35 353.831 273.3C357.771 272.3 360.431 269.22 363.451 266.72C363.501 266.68 363.451 266.6 363.391 266.64C360.421 268.95 357.631 271.58 353.961 272.7C354.281 271.23 354.611 269.76 354.941 268.29C358.501 266.98 361.351 264.89 363.841 261.98C363.881 261.93 363.811 261.86 363.771 261.91C361.191 264.59 358.351 266.13 355.091 267.66C355.421 266.21 355.751 264.75 356.061 263.3C357.601 262.54 359.221 262.08 360.651 261.08C362.051 260.1 363.311 258.93 364.221 257.46C364.271 257.38 364.151 257.31 364.101 257.38C362.111 260.25 359.101 261.14 356.201 262.64C356.481 261.28 356.751 259.92 356.981 258.55C360.221 256.77 363.731 255.12 365.571 251.7C365.591 251.67 365.541 251.63 365.521 251.67C363.581 254.81 360.181 256.16 357.101 257.87C357.141 257.63 357.181 257.38 357.221 257.14C357.421 255.87 357.601 254.6 357.791 253.32C359.651 252.58 361.421 251.52 363.101 250.43C364.291 249.66 365.561 248.89 366.331 247.68C366.381 247.6 366.271 247.53 366.211 247.6C364.471 250.09 360.671 251.52 357.861 252.77C358.041 251.48 358.221 250.2 358.411 248.91C361.531 247.02 365.191 245.98 367.111 242.58C367.171 242.48 367.021 242.39 366.961 242.48C364.971 245.58 361.481 246.54 358.501 248.3C358.611 247.5 358.731 246.71 358.851 245.91C362.211 244.67 366.131 241.86 367.901 238.82C368.001 238.65 367.761 238.5 367.651 238.66C365.841 241.33 362.211 244.23 358.951 245.29C359.151 244 359.361 242.71 359.591 241.43C359.611 241.39 359.631 241.36 359.641 241.32C361.151 240.88 362.641 239.81 363.951 239.01C365.521 238.04 367.021 236.91 368.001 235.32C368.111 235.14 367.821 234.98 367.721 235.16C366.231 237.83 362.681 239.61 359.741 240.63C359.831 240.16 359.911 239.69 360.001 239.23C360.141 238.53 360.281 237.83 360.421 237.13C361.621 236.3 363.151 235.9 364.361 235.03C365.411 234.27 366.331 233.35 367.221 232.42C367.311 232.33 367.181 232.18 367.081 232.27C365.861 233.42 364.611 234.51 363.131 235.31C362.301 235.75 361.361 236.01 360.551 236.49C360.781 235.35 361.021 234.2 361.241 233.06C361.251 233.06 361.271 233.05 361.281 233.05C361.291 233.05 361.311 233.06 361.321 233.06C361.401 233.08 361.471 233.05 361.521 233C363.151 232.59 364.411 231.18 365.501 229.98C365.531 229.95 365.491 229.91 365.461 229.94C364.311 231.01 363.001 232.19 361.451 232.64C361.441 232.64 361.441 232.63 361.431 232.63C361.391 232.62 361.351 232.62 361.311 232.61C361.491 231.68 361.661 230.75 361.811 229.81C361.931 229.79 362.031 229.69 362.001 229.57C362.871 228.99 363.651 228.25 364.391 227.52C364.451 227.47 364.371 227.38 364.311 227.43C363.541 228.09 362.781 228.64 361.921 229.12C362.231 227.19 362.461 225.25 362.571 223.28C362.581 223.1 362.311 223.1 362.291 223.28C362.121 225.17 361.841 227.04 361.521 228.9C360.621 227.72 359.611 226.5 359.061 225.14C359.031 225.07 358.921 225.1 358.941 225.17C359.211 226.01 359.671 226.75 360.131 227.49C360.541 228.16 360.871 228.94 361.401 229.53C361.221 230.53 361.021 231.53 360.821 232.52C359.721 232.34 358.721 232.14 357.811 231.34C356.701 230.37 356.071 229.05 355.961 227.58C355.951 227.4 355.661 227.4 355.681 227.58C355.801 228.94 356.351 230.22 357.281 231.24C358.261 232.31 359.411 232.65 360.731 232.92C360.491 234.07 360.241 235.22 359.991 236.36C358.991 235.76 358.071 234.98 357.171 234.27C355.721 233.12 354.871 231.73 353.611 230.43C353.481 230.3 353.281 230.49 353.401 230.62C354.581 231.87 355.371 233.23 356.721 234.35C357.681 235.16 358.751 236.18 359.901 236.77C359.891 236.83 359.871 236.89 359.861 236.95C359.851 236.96 359.831 236.97 359.821 236.98C359.731 237.07 359.741 237.16 359.791 237.24C359.551 238.34 359.311 239.44 359.071 240.54C359.061 240.61 359.041 240.68 359.031 240.75C356.471 239.58 352.641 237.54 352.301 234.57C352.271 234.29 351.851 234.37 351.911 234.66C352.671 238.02 356.361 239.51 358.911 241.35C358.661 242.6 358.431 243.84 358.221 245.1C356.571 244.53 354.991 243.83 353.601 242.72C352.341 241.72 350.551 240.5 349.981 238.95C349.961 238.9 349.891 238.93 349.911 238.98C350.441 240.53 352.041 241.59 353.211 242.65C354.691 243.99 356.211 245.13 358.111 245.66C358.101 245.71 358.091 245.77 358.111 245.83C357.981 246.62 357.851 247.42 357.731 248.21C354.621 247.97 350.271 245.61 348.681 243.26C348.671 243.25 348.661 243.26 348.661 243.27C349.741 245.07 351.381 246.12 353.231 247.03C354.611 247.71 356.101 248.51 357.661 248.63C357.441 250.1 357.221 251.58 357.001 253.05C355.651 252.55 354.221 252.31 352.881 251.77C350.891 250.98 349.381 249.55 348.211 247.79C348.141 247.68 347.961 247.77 348.031 247.88C350.181 251.3 353.281 252.31 356.911 253.59C356.731 254.8 356.541 256.01 356.341 257.21C353.371 256.64 349.531 254.83 348.021 252.25C347.911 252.06 347.611 252.22 347.721 252.41C348.671 254.06 350.311 255.11 351.971 255.95C353.171 256.56 354.831 257.56 356.261 257.67C356.251 257.71 356.251 257.75 356.241 257.79C355.951 259.53 355.601 261.25 355.231 262.97C351.911 262.14 349.771 259.68 347.351 257.38C347.181 257.22 346.921 257.46 347.091 257.63C349.551 260.05 351.711 262.59 355.121 263.48C354.811 264.88 354.491 266.28 354.151 267.67C351.321 266.88 348.531 264.87 346.701 262.57C346.571 262.41 346.341 262.63 346.471 262.79C348.371 265.29 351.111 267.18 354.031 268.21C353.661 269.7 353.281 271.2 352.901 272.69C350.001 272.25 347.761 270.43 345.971 268.13C345.931 268.08 345.831 268.15 345.871 268.2C347.461 270.41 349.861 272.96 352.751 273.23C352.631 273.71 352.501 274.18 352.381 274.66C352.311 274.95 352.231 275.24 352.151 275.53C349.961 274.89 347.931 274.1 346.121 272.62C346.071 272.58 346.011 272.66 346.061 272.7C347.781 274.25 349.831 275.29 352.031 275.96C351.791 276.85 351.531 277.78 351.271 278.71C350.731 278.46 350.201 278.18 349.611 278C348.521 277.67 347.821 276.98 346.871 276.41C346.781 276.36 346.691 276.48 346.771 276.54C347.601 277.08 348.191 277.78 349.141 278.14C349.841 278.4 350.511 278.74 351.191 279.04C350.191 282.76 349.311 286.71 349.791 290.28C349.901 291.07 351.221 291.28 351.431 290.44C352.101 287.88 352.071 285.12 352.361 282.47Z" fill="#747DED"/>
<path d="M331.58 255.06C333.54 263.33 339.99 275.97 330.96 282.65C328.53 284.45 325.06 283.8 322.5 282.39C319.15 280.55 315.91 274.86 314.37 271.46C313.15 268.76 312.67 265.35 311.71 262.51C310.67 259.44 309.56 256.39 308.54 253.31C304.87 242.21 306.26 230.84 313.11 221.25C315.44 224.37 318.44 226.53 321.43 229.17C322.79 230.37 324.13 231.69 325.3 233.08C327.37 235.53 327.77 238.8 328.34 241.8C329.18 246.24 330.54 250.65 331.58 255.06Z" fill="url(#paint7_linear_4676_52593)"/>
<path d="M329.391 283.69C329.171 283.02 328.95 282.35 328.74 281.68C329.93 281.12 330.861 279.87 331.621 278.88C332.941 277.17 333.741 275.22 334.471 273.21C334.511 273.1 334.331 273.04 334.281 273.14C333.451 274.92 332.561 276.68 331.291 278.19C330.581 279.03 329.581 280.33 328.531 280.98C328.281 280.18 328.051 279.37 327.821 278.56C328.991 277.83 329.751 276.48 330.511 275.37C331.801 273.48 332.7 271.39 333.68 269.32C333.69 269.3 333.661 269.28 333.641 269.3C332.031 272.21 330.481 275.99 327.661 277.98C327.381 276.96 327.121 275.94 326.881 274.91C326.871 274.86 326.861 274.8 326.841 274.75C329.991 272.19 331.101 268.26 332.781 264.73C332.811 264.67 332.721 264.62 332.691 264.68C330.971 268.02 329.551 271.59 326.701 274.15C326.371 272.68 326.051 271.21 325.731 269.74C328.411 267.05 330.101 263.95 331.131 260.27C331.151 260.21 331.061 260.17 331.041 260.24C329.841 263.76 327.911 266.35 325.591 269.12C325.281 267.66 324.961 266.21 324.621 264.76C325.701 263.42 326.971 262.32 327.841 260.82C328.701 259.34 329.35 257.74 329.55 256.03C329.56 255.94 329.431 255.92 329.411 256.01C328.811 259.45 326.461 261.53 324.471 264.12C324.151 262.77 323.821 261.42 323.451 260.08C325.631 257.1 328.121 254.12 328.341 250.25C328.341 250.21 328.291 250.2 328.281 250.24C327.841 253.9 325.331 256.56 323.261 259.41C323.191 259.17 323.131 258.93 323.061 258.69C322.701 257.45 322.33 256.22 321.96 254.99C323.33 253.53 324.49 251.83 325.55 250.13C326.3 248.93 327.131 247.7 327.321 246.27C327.331 246.18 327.2 246.16 327.18 246.25C326.66 249.24 323.82 252.14 321.8 254.46C321.42 253.22 321.041 251.98 320.671 250.73C322.701 247.71 325.581 245.21 325.891 241.32C325.901 241.2 325.73 241.18 325.71 241.3C325.22 244.95 322.451 247.29 320.501 250.15C320.271 249.38 320.041 248.61 319.811 247.84C322.341 245.3 324.7 241.09 325.02 237.59C325.04 237.4 324.751 237.36 324.721 237.55C324.211 240.73 322.131 244.9 319.631 247.23C319.271 245.98 318.91 244.72 318.58 243.46C318.59 243.42 318.59 243.38 318.58 243.34C319.76 242.3 320.671 240.7 321.511 239.42C322.531 237.88 323.411 236.22 323.621 234.36C323.641 234.15 323.32 234.13 323.3 234.33C323.07 237.38 320.611 240.5 318.381 242.66C318.261 242.2 318.141 241.74 318.031 241.27C317.861 240.58 317.691 239.88 317.531 239.19C318.271 237.93 319.49 236.93 320.21 235.62C320.84 234.49 321.28 233.27 321.71 232.04C321.75 231.92 321.57 231.84 321.52 231.97C320.9 233.52 320.231 235.05 319.221 236.39C318.661 237.14 317.911 237.77 317.381 238.55C317.111 237.41 316.841 236.28 316.561 235.15C316.571 235.14 316.581 235.13 316.591 235.12C316.601 235.12 316.621 235.11 316.631 235.11C316.711 235.09 316.761 235.03 316.781 234.97C318.091 233.91 318.631 232.1 319.121 230.55C319.131 230.51 319.081 230.49 319.061 230.53C318.461 231.98 317.781 233.6 316.571 234.67C316.561 234.67 316.56 234.67 316.55 234.67C316.51 234.68 316.471 234.69 316.441 234.7C316.211 233.78 315.971 232.86 315.721 231.95C315.821 231.88 315.871 231.75 315.791 231.65C316.331 230.76 316.731 229.75 317.091 228.78C317.121 228.71 317.011 228.66 316.981 228.73C316.561 229.65 316.11 230.47 315.52 231.27C314.98 229.39 314.381 227.53 313.651 225.7C313.581 225.53 313.331 225.65 313.391 225.81C314.031 227.59 314.571 229.41 315.061 231.23C313.741 230.54 312.321 229.86 311.251 228.86C311.191 228.81 311.111 228.88 311.161 228.94C311.761 229.59 312.491 230.06 313.221 230.54C313.881 230.97 314.501 231.54 315.231 231.86C315.491 232.84 315.73 233.83 315.96 234.82C314.89 235.12 313.89 235.36 312.74 235.02C311.33 234.61 310.201 233.68 309.481 232.39C309.391 232.23 309.131 232.35 309.231 232.51C309.921 233.69 310.951 234.63 312.221 235.15C313.561 235.7 314.751 235.53 316.061 235.22C316.331 236.36 316.591 237.51 316.841 238.65C315.691 238.53 314.521 238.21 313.401 237.94C311.601 237.5 310.24 236.61 308.55 235.96C308.38 235.9 308.271 236.15 308.441 236.22C310.041 236.86 311.33 237.75 313.02 238.21C314.24 238.54 315.63 239.01 316.93 239.07C316.94 239.13 316.961 239.19 316.971 239.25C316.961 239.27 316.961 239.28 316.951 239.3C316.911 239.42 316.961 239.5 317.041 239.54C317.281 240.64 317.531 241.74 317.781 242.83C317.801 242.9 317.81 242.97 317.83 243.04C315.01 243.06 310.681 242.83 309.121 240.28C308.971 240.04 308.62 240.29 308.8 240.52C310.91 243.25 314.891 243.04 317.971 243.63C318.271 244.86 318.591 246.09 318.921 247.32C317.181 247.5 315.461 247.53 313.731 247.11C312.161 246.73 310.03 246.39 308.86 245.22C308.82 245.18 308.771 245.24 308.811 245.28C309.941 246.46 311.841 246.75 313.351 247.21C315.261 247.8 317.111 248.19 319.061 247.87C319.071 247.93 319.091 247.98 319.131 248.02C319.351 248.79 319.571 249.57 319.791 250.34C316.871 251.44 311.93 251.13 309.49 249.67C309.48 249.66 309.471 249.68 309.481 249.69C311.221 250.86 313.15 251.12 315.21 251.17C316.75 251.2 318.441 251.3 319.911 250.75C320.331 252.18 320.75 253.61 321.18 255.03C319.74 255.14 318.351 255.53 316.911 255.61C314.771 255.73 312.801 255.07 311.001 253.98C310.891 253.91 310.771 254.07 310.881 254.14C314.281 256.34 317.511 255.94 321.341 255.57C321.691 256.74 322.021 257.92 322.351 259.09C319.421 259.83 315.171 259.81 312.721 258.1C312.541 257.97 312.331 258.24 312.511 258.37C314.071 259.47 315.99 259.73 317.86 259.79C319.21 259.83 321.131 260.05 322.471 259.54C322.481 259.58 322.491 259.62 322.501 259.66C322.971 261.36 323.38 263.07 323.77 264.78C320.41 265.42 317.43 264.1 314.27 263.03C314.05 262.96 313.921 263.29 314.141 263.37C317.391 264.53 320.421 265.91 323.891 265.28C324.201 266.68 324.501 268.08 324.781 269.49C321.881 269.97 318.501 269.33 315.871 268.01C315.681 267.92 315.571 268.21 315.751 268.31C318.531 269.77 321.811 270.33 324.891 270.03C325.191 271.54 325.471 273.05 325.751 274.57C322.931 275.39 320.141 274.69 317.541 273.36C317.481 273.33 317.421 273.43 317.481 273.47C319.851 274.8 323.111 276.1 325.841 275.13C325.931 275.61 326.02 276.1 326.11 276.58C326.16 276.87 326.22 277.17 326.27 277.47C324.01 277.81 321.84 277.95 319.58 277.38C319.52 277.36 319.501 277.46 319.561 277.48C321.771 278.16 324.071 278.23 326.351 277.92C326.511 278.83 326.66 279.78 326.83 280.73C326.23 280.73 325.64 280.7 325.02 280.79C323.89 280.95 322.96 280.63 321.86 280.51C321.76 280.5 321.72 280.65 321.83 280.67C322.81 280.81 323.64 281.2 324.65 281.12C325.4 281.06 326.141 281.09 326.891 281.08C327.561 284.87 328.42 288.83 330.371 291.87C330.801 292.54 332.091 292.17 331.921 291.32C331.431 288.71 330.241 286.21 329.391 283.69Z" fill="#747DED"/>
<path d="M350.67 248.64C351.14 259.15 356.06 276.01 343.52 282.04C340.14 283.66 336.08 282.07 333.3 279.76C329.66 276.75 327.03 269.08 325.95 264.59C325.09 261.03 325.3 256.77 324.79 253.09C324.23 249.12 323.6 245.15 323.07 241.18C321.18 226.84 325.5 213.33 336.05 203.27C338.16 207.6 341.31 210.92 344.33 214.83C345.71 216.61 347.03 218.52 348.13 220.48C350.08 223.94 349.81 228 349.8 231.79C349.8 237.38 350.42 243.05 350.67 248.64Z" fill="url(#paint8_linear_4676_52593)"/>
<path d="M341.369 282.95C341.249 282.09 341.139 281.22 341.039 280.36C342.619 279.96 344.039 278.64 345.189 277.62C347.189 275.85 348.619 273.67 349.959 271.39C350.029 271.27 349.829 271.15 349.749 271.26C348.329 273.23 346.829 275.16 344.939 276.71C343.889 277.57 342.369 278.92 340.939 279.47C340.829 278.43 340.729 277.4 340.639 276.36C342.229 275.74 343.469 274.28 344.649 273.1C346.659 271.1 348.239 268.77 349.899 266.48C349.919 266.45 349.879 266.42 349.859 266.45C347.229 269.61 344.469 273.85 340.579 275.61C340.479 274.31 340.399 273 340.339 271.7C340.339 271.63 340.339 271.56 340.329 271.5C344.749 269.11 347.009 264.6 349.869 260.69C349.919 260.63 349.829 260.54 349.779 260.61C346.919 264.28 344.369 268.28 340.299 270.73C340.229 268.86 340.189 267 340.139 265.14C344.019 262.48 346.799 259.12 348.899 254.87C348.939 254.8 348.829 254.74 348.789 254.81C346.509 258.81 343.569 261.52 340.119 264.34C340.069 262.5 340.029 260.65 339.959 258.81C341.579 257.43 343.379 256.39 344.789 254.76C346.179 253.16 347.329 251.37 347.969 249.34C347.999 249.23 347.839 249.18 347.809 249.29C346.289 253.33 342.949 255.31 339.919 258C339.849 256.28 339.749 254.57 339.619 252.85C342.959 249.73 346.679 246.68 347.849 242.03C347.859 241.98 347.789 241.96 347.779 242.01C346.399 246.36 342.739 249.01 339.549 252C339.519 251.69 339.499 251.39 339.479 251.08C339.329 249.5 339.169 247.91 338.999 246.33C341.009 244.87 342.809 243.07 344.489 241.26C345.679 239.97 346.969 238.67 347.539 236.97C347.579 236.86 347.419 236.8 347.379 236.91C346.049 240.42 341.929 243.3 338.929 245.64C338.759 244.04 338.589 242.45 338.419 240.85C341.589 237.64 345.669 235.28 346.939 230.62C346.979 230.48 346.769 230.42 346.729 230.55C345.289 234.87 341.379 237.08 338.349 240.1C338.249 239.11 338.139 238.12 338.049 237.13C341.709 234.63 345.549 230.06 346.759 225.87C346.829 225.64 346.489 225.53 346.409 225.75C345.049 229.5 341.569 234.08 337.979 236.34C337.829 234.73 337.689 233.13 337.569 231.52C337.589 231.47 337.599 231.42 337.599 231.37C339.279 230.38 340.749 228.65 342.069 227.29C343.659 225.65 345.119 223.84 345.809 221.63C345.889 221.39 345.489 221.28 345.429 221.53C344.449 225.18 340.729 228.4 337.519 230.52C337.479 229.93 337.439 229.34 337.409 228.75C337.359 227.87 337.319 226.99 337.279 226.1C338.469 224.74 340.179 223.8 341.359 222.38C342.389 221.15 343.209 219.77 344.009 218.38C344.089 218.24 343.889 218.11 343.799 218.25C342.689 219.99 341.519 221.69 339.979 223.09C339.119 223.87 338.059 224.46 337.249 225.29C337.189 223.85 337.119 222.41 337.039 220.96C337.059 220.95 337.069 220.94 337.089 220.94C337.109 220.94 337.129 220.94 337.139 220.94C337.239 220.93 337.319 220.88 337.359 220.81C339.199 219.82 340.269 217.75 341.219 215.98C341.239 215.94 341.179 215.9 341.159 215.94C340.099 217.57 338.889 219.38 337.169 220.4C337.159 220.4 337.159 220.4 337.149 220.4C337.099 220.4 337.049 220.41 336.999 220.41C336.929 219.24 336.849 218.07 336.759 216.9C336.899 216.84 336.989 216.69 336.919 216.55C337.779 215.59 338.499 214.46 339.169 213.37C339.219 213.29 339.099 213.21 339.049 213.29C338.329 214.32 337.579 215.2 336.689 216.04C336.469 213.63 336.169 211.23 335.699 208.84C335.659 208.62 335.329 208.7 335.359 208.92C335.729 211.24 335.969 213.56 336.139 215.9C334.699 214.75 333.129 213.6 332.049 212.14C331.989 212.06 331.869 212.13 331.919 212.22C332.499 213.15 333.279 213.89 334.059 214.65C334.759 215.33 335.389 216.16 336.199 216.72C336.289 217.97 336.349 219.23 336.409 220.49C335.039 220.61 333.769 220.67 332.449 219.99C330.829 219.16 329.669 217.77 329.089 216.04C329.019 215.83 328.679 215.92 328.749 216.13C329.309 217.73 330.349 219.1 331.779 220.04C333.279 221.02 334.759 221.08 336.429 221.01C336.489 222.46 336.539 223.91 336.589 225.37C335.209 224.96 333.869 224.3 332.569 223.71C330.479 222.76 329.039 221.36 327.129 220.18C326.939 220.06 326.749 220.35 326.939 220.47C328.729 221.62 330.099 223 332.049 223.94C333.449 224.62 335.039 225.52 336.599 225.88C336.599 225.96 336.599 226.03 336.609 226.11C336.599 226.13 336.579 226.14 336.569 226.16C336.489 226.29 336.529 226.41 336.619 226.48C336.659 227.87 336.709 229.26 336.759 230.65C336.759 230.74 336.769 230.82 336.769 230.91C333.339 230.28 328.129 229 326.819 225.53C326.699 225.2 326.209 225.42 326.379 225.75C328.309 229.56 333.199 230.22 336.809 231.65C336.889 233.22 336.989 234.79 337.109 236.35C334.949 236.17 332.849 235.8 330.849 234.9C329.029 234.08 326.519 233.17 325.359 231.47C325.319 231.42 325.249 231.48 325.279 231.53C326.379 233.23 328.629 234.02 330.349 234.93C332.529 236.09 334.699 236.99 337.139 237.06C337.139 237.13 337.149 237.2 337.189 237.26C337.269 238.25 337.359 239.24 337.459 240.23C333.649 240.89 327.719 239.37 325.089 237.03C325.079 237.02 325.059 237.04 325.069 237.05C326.919 238.88 329.199 239.64 331.689 240.17C333.549 240.57 335.589 241.08 337.499 240.75C337.679 242.58 337.869 244.42 338.049 246.25C336.279 246.06 334.489 246.2 332.719 245.96C330.099 245.61 327.839 244.36 325.909 242.6C325.789 242.49 325.609 242.65 325.729 242.77C329.349 246.23 333.369 246.49 338.119 246.93C338.269 248.43 338.409 249.94 338.529 251.45C334.789 251.67 329.629 250.66 327.049 248.02C326.859 247.83 326.549 248.11 326.739 248.3C328.379 250 330.659 250.75 332.919 251.26C334.549 251.62 336.839 252.33 338.589 252.02C338.589 252.07 338.599 252.12 338.599 252.17C338.769 254.34 338.889 256.52 338.959 258.69C334.729 258.7 331.409 256.4 327.809 254.37C327.559 254.23 327.319 254.6 327.569 254.75C331.249 256.91 334.609 259.3 338.979 259.33C339.039 261.1 339.069 262.88 339.089 264.65C335.459 264.56 331.489 263 328.599 260.79C328.389 260.63 328.189 260.97 328.389 261.13C331.429 263.55 335.289 264.99 339.099 265.34C339.109 267.24 339.109 269.15 339.099 271.05C335.479 271.4 332.249 269.9 329.399 267.68C329.329 267.63 329.239 267.74 329.309 267.8C331.889 269.97 335.539 272.3 339.089 271.75C339.089 272.36 339.079 272.97 339.079 273.57C339.079 273.94 339.069 274.31 339.069 274.69C336.249 274.58 333.569 274.25 330.959 273.03C330.889 273 330.839 273.11 330.909 273.14C333.439 274.47 336.219 275.1 339.059 275.25C339.039 276.4 339.009 277.58 338.989 278.78C338.259 278.64 337.549 278.47 336.779 278.43C335.369 278.37 334.319 277.75 333.009 277.36C332.889 277.32 332.809 277.5 332.929 277.54C334.089 277.94 335.009 278.6 336.249 278.74C337.169 278.84 338.069 279.05 338.979 279.2C338.909 283.97 339.049 288.98 340.709 293.12C341.079 294.04 342.739 293.89 342.729 292.81C342.699 289.52 341.819 286.21 341.369 282.95Z" fill="#747DED"/>
<path d="M357.59 286.89L357.13 295.43L356.4 308.73L355.21 330.59H325.62L324.43 308.73L323.7 295.43L323.24 286.89H357.59Z" fill="#95A8B5"/>
<path d="M357.129 295.43L357.029 297.14L356.939 298.91L356.399 308.73H324.429L323.889 298.91L323.799 297.14L323.699 295.43H357.129Z" fill="#A5B7C6"/>
<path d="M357.031 297.14L356.941 298.91H323.891L323.801 297.14H357.031Z" fill="#95A8B5"/>
<defs>
<radialGradient id="paint0_radial_4676_52593" cx="0" cy="0" r="1" gradientUnits="userSpaceOnUse" gradientTransform="translate(250.776 112.604) scale(12.9255)">
<stop stop-color="#FFC8AF"/>
<stop offset="1" stop-color="#FFBB9C"/>
</radialGradient>
<radialGradient id="paint1_radial_4676_52593" cx="0" cy="0" r="1" gradientUnits="userSpaceOnUse" gradientTransform="translate(243.298 89.208) rotate(-12.1516) scale(20.3776)">
<stop stop-color="#FFC8AF"/>
<stop offset="1" stop-color="#FFBB9C"/>
</radialGradient>
<radialGradient id="paint2_radial_4676_52593" cx="0" cy="0" r="1" gradientUnits="userSpaceOnUse" gradientTransform="translate(223.219 307.773) scale(8.1259)">
<stop stop-color="#FFC8AF"/>
<stop offset="1" stop-color="#FFBB9C"/>
</radialGradient>
<radialGradient id="paint3_radial_4676_52593" cx="0" cy="0" r="1" gradientUnits="userSpaceOnUse" gradientTransform="translate(171.755 309.811) scale(7.4015)">
<stop stop-color="#FFC8AF"/>
<stop offset="1" stop-color="#FFBB9C"/>
</radialGradient>
<radialGradient id="paint4_radial_4676_52593" cx="0" cy="0" r="1" gradientUnits="userSpaceOnUse" gradientTransform="translate(216.817 170.923) scale(41.4442)">
<stop stop-color="#FFC8AF"/>
<stop offset="1" stop-color="#FFBB9C"/>
</radialGradient>
<radialGradient id="paint5_radial_4676_52593" cx="0" cy="0" r="1" gradientUnits="userSpaceOnUse" gradientTransform="translate(216.816 170.923) scale(41.444)">
<stop stop-color="#FFC8AF"/>
<stop offset="1" stop-color="#FFBB9C"/>
</radialGradient>
<linearGradient id="paint6_linear_4676_52593" x1="357.125" y1="218.998" x2="357.127" y2="282.299" gradientUnits="userSpaceOnUse">
<stop stop-color="#606BF1"/>
<stop offset="1" stop-color="#58479F"/>
</linearGradient>
<linearGradient id="paint7_linear_4676_52593" x1="306.916" y1="224.138" x2="333.635" y2="281.522" gradientUnits="userSpaceOnUse">
<stop stop-color="#606BF1"/>
<stop offset="1" stop-color="#58479F"/>
</linearGradient>
<linearGradient id="paint8_linear_4676_52593" x1="327.843" y1="205.345" x2="347.037" y2="281.295" gradientUnits="userSpaceOnUse">
<stop stop-color="#606BF1"/>
<stop offset="1" stop-color="#58479F"/>
</linearGradient>
</defs>
</svg>
