<svg width="20" height="20" viewBox="0 0 20 20" fill="none" xmlns="http://www.w3.org/2000/svg">
<path d="M10.202 20C16.0892 20 20 15.9493 20 10.232C20 9.57733 19.9306 9.072 19.834 8.568H10.2034V12.0053H15.994C15.7573 13.4653 14.2406 16.316 10.2034 16.316C6.72516 16.316 3.88492 13.492 3.88492 10C3.88492 6.508 6.7238 3.68267 10.2034 3.68267C12.1934 3.68267 13.5156 4.51467 14.2678 5.224L17.0373 2.61867C15.254 0.982667 12.9579 0 10.202 0C4.56505 0 0 4.47467 0 10C0 15.5253 4.56505 20 10.202 20Z" fill="white"/>
</svg>
