<svg width="204" height="169" viewBox="0 0 204 169" fill="none" xmlns="http://www.w3.org/2000/svg">
<path d="M177.002 94C177.002 97.8 176.702 101.6 176.202 105.3C173.702 121.5 166.102 136 155.102 147C154.702 147.4 154.402 147.7 154.002 148.1C149.302 152.6 144.002 156.5 138.302 159.7C137.902 159.9 137.402 160.2 137.002 160.4C130.402 163.9 123.302 166.4 115.702 167.8C114.902 167.9 114.202 168.1 113.402 168.2C109.702 168.8 105.902 169 102.102 169C100.802 169 99.6016 169 98.3016 168.9C97.8016 168.9 97.4016 168.9 96.9016 168.8C92.4016 168.5 88.0016 167.8 83.8016 166.7C83.3016 166.6 82.8016 166.5 82.4016 166.3C56.5016 159.3 36.2016 138.8 29.5016 112.8C29.4016 112.3 29.3016 111.8 29.1016 111.3C27.8016 105.7 27.1016 99.9 27.1016 93.9C27.1016 89.4 27.5016 85 28.3016 80.7C28.4016 80.1 28.5016 79.6 28.6016 79C28.7016 78.7 28.7016 78.3 28.8016 78C29.0016 77.2 29.1016 76.5 29.3016 75.7C29.4016 75.4 29.4016 75.1 29.5016 74.8C29.5016 74.7 29.5016 74.7 29.5016 74.6C29.5016 74.5 29.5016 74.4 29.6016 74.3C29.7016 74 29.8016 73.7 29.9016 73.3C30.1016 72.6 30.3016 72 30.5016 71.3C36.3016 52.8 49.3016 37.2 66.3016 28C66.8016 27.7 67.2016 27.5 67.7016 27.3C78.0016 22 89.6016 19 102.002 19C114.702 19 126.702 22.2 137.202 27.8C137.502 27.9 137.802 28.1 138.102 28.3C138.402 28.5 138.702 28.6 139.002 28.8C139.602 29.1 140.102 29.4 140.702 29.8C141.302 30.1 141.802 30.5 142.402 30.9C142.902 31.2 143.302 31.5 143.802 31.8C143.902 31.8 144.002 31.9 144.102 32C144.502 32.3 145.002 32.6 145.402 32.9C145.902 33.2 146.402 33.6 146.902 34C147.302 34.3 147.702 34.6 148.102 34.9C148.202 35 148.402 35.1 148.502 35.2C148.902 35.5 149.302 35.8 149.702 36.1C150.402 36.6 151.002 37.2 151.602 37.7C152.002 38 152.402 38.4 152.702 38.7C152.702 38.7 152.802 38.8 152.902 38.8C166.702 51.5 175.702 69.4 176.902 89.3C177.002 90.9 177.002 92.5 177.002 94Z" fill="#EA5924"/>
<path d="M33.7 91.5C33.3 91.5 33 91.2 33 90.8L33.2 82C33.2 81.6 33.5 81.3 33.9 81.3C34.3 81.3 34.6 81.6 34.6 82L34.4 90.8C34.4 91.2 34.1 91.5 33.7 91.5Z" fill="#F07346"/>
<path d="M68.2995 56.7C68.1995 56.7 68.1994 56.7 68.0994 56.7L62.6995 54.9C62.3995 54.8 62.1995 54.4 62.2995 54.1C62.3995 53.8 62.7994 53.6 63.0994 53.7L68.4995 55.5C68.7995 55.6 68.9995 56 68.8995 56.3C68.7995 56.5 68.5995 56.7 68.2995 56.7Z" fill="#F07346"/>
<path d="M116.299 36.3C116.199 36.3 115.999 36.3 115.899 36.2L113.499 34.5C113.199 34.3 113.099 33.9 113.299 33.6C113.499 33.3 113.899 33.2 114.199 33.4L116.599 35.1C116.899 35.3 116.999 35.7 116.799 36C116.699 36.2 116.499 36.3 116.299 36.3Z" fill="#F07346"/>
<path d="M101.1 26.2C101 26.2 100.8 26.2 100.7 26.1L95.3001 22.5C95.0001 22.3 94.9001 21.9 95.1001 21.6C95.3001 21.3 95.7001 21.2 96.0001 21.4L101.4 25C101.7 25.2 101.8 25.6 101.6 25.9C101.5 26.1 101.3 26.2 101.1 26.2Z" fill="#F07346"/>
<path d="M117.9 99C117.6 99 117.3 98.8 117.2 98.4L116.5 93.3C116.5 92.9 116.7 92.6 117.1 92.5C117.5 92.4 117.8 92.7 117.9 93.1L118.6 98.2C118.6 98.6 118.4 98.9 117.9 99C118 99 117.9 99 117.9 99Z" fill="#F07346"/>
<path d="M90.1989 77.6C89.8989 77.6 89.5989 77.4 89.4989 77.1L88.7989 74.3C88.6989 73.9 88.8989 73.6 89.2989 73.5C89.6989 73.4 89.9989 73.6 90.0989 74L90.7989 76.8C90.8989 77.2 90.6989 77.5 90.2989 77.6C90.2989 77.6 90.2989 77.6 90.1989 77.6Z" fill="#F07346"/>
<path d="M134.701 72.7C134.401 72.7 134.101 72.5 134.001 72.1L133.101 66.4C133.001 66 133.301 65.7 133.701 65.6C134.101 65.5 134.401 65.8 134.501 66.2L135.401 71.9C135.501 72.3 135.201 72.6 134.801 72.7C134.701 72.7 134.701 72.7 134.701 72.7Z" fill="#F07346"/>
<path d="M64.3017 33.2C64.2017 33.2 64.1017 33.2 63.9017 33.1C63.6017 32.9 63.5017 32.5 63.7017 32.2L66.6017 27.5C66.8017 27.2 67.2017 27.1 67.5017 27.3C67.8017 27.5 67.9017 27.9 67.7017 28.2L64.8017 32.9C64.8017 33 64.5017 33.2 64.3017 33.2Z" fill="#F07346"/>
<path d="M102.198 100.3C101.898 100.3 101.598 100.1 101.498 99.8C101.398 99.4 101.598 99.1 101.998 99L104.698 98.4C105.098 98.3 105.398 98.5 105.498 98.9C105.598 99.3 105.398 99.6 104.998 99.7L102.298 100.3C102.298 100.3 102.298 100.3 102.198 100.3Z" fill="#F07346"/>
<path d="M40.3013 69.3C40.0013 69.3 39.7013 69.1 39.7013 68.8C39.6013 68.4 39.8013 68.1 40.2013 68L46.6013 66.2C47.0013 66.1 47.3013 66.3 47.4013 66.7C47.5013 67.1 47.3013 67.4 46.9013 67.5L40.5013 69.3C40.4013 69.3 40.3013 69.3 40.3013 69.3Z" fill="#F07346"/>
<path d="M40.1016 39.9C40.0016 40 39.9016 40 39.8016 40C39.5016 40 39.3016 39.8 39.2016 39.6L37.6016 35.8C38.0016 35.5 38.4016 35.3 38.8016 35.2L40.4016 39.1C40.6016 39.4 40.4016 39.8 40.1016 39.9Z" fill="#F07346"/>
<path d="M129.098 85.8C128.798 85.8 128.498 85.6 128.398 85.2C128.398 84.8 128.598 84.5 128.998 84.4L134.298 83.7C134.698 83.7 134.998 83.9 135.098 84.3C135.198 84.7 134.898 85 134.498 85.1L129.098 85.8Z" fill="#F07346"/>
<path d="M97.3991 57.8C97.0991 57.8 96.7991 57.6 96.6991 57.2C96.5991 56.8 96.8991 56.5 97.2991 56.4L99.0991 56.1C99.4991 56 99.7991 56.3 99.8991 56.7C99.9991 57.1 99.6991 57.4 99.2991 57.5L97.4991 57.8C97.4991 57.8 97.4991 57.8 97.3991 57.8Z" fill="#F07346"/>
<path d="M120.099 114.4C119.999 114.4 119.899 114.4 119.699 114.3C119.399 114.1 119.299 113.7 119.499 113.4L121.699 109.9C121.899 109.6 122.299 109.5 122.599 109.7C122.899 109.9 122.999 110.3 122.799 110.6L120.599 114.1C120.599 114.3 120.399 114.4 120.099 114.4Z" fill="#F07346"/>
<path d="M49.8003 82.1C49.6003 82.1 49.4003 82 49.3003 81.9L46.6003 78.8C46.4003 78.5 46.4003 78.1 46.7003 77.9C47.0003 77.7 47.4003 77.7 47.6003 78L50.3003 81.1C50.5003 81.4 50.5003 81.8 50.2003 82C50.1003 82 49.9003 82.1 49.8003 82.1Z" fill="#F07346"/>
<path d="M89.0008 94.7C88.9008 94.7 88.8008 94.7 88.7008 94.6C88.4008 94.4 88.2008 94 88.4008 93.7L90.7008 88.6C90.9008 88.3 91.3008 88.1 91.6008 88.3C91.9008 88.5 92.1008 88.9 91.9008 89.2L89.6008 94.3C89.6008 94.5 89.3008 94.7 89.0008 94.7Z" fill="#F07346"/>
<path d="M73.9984 45.6C73.7984 45.6 73.6984 45.5 73.4984 45.4C73.1984 45.2 73.1984 44.7 73.4984 44.5L74.9984 42.8C75.1984 42.5 75.6984 42.5 75.8984 42.8C76.1984 43 76.1984 43.5 75.8984 43.7L74.3984 45.4C74.3984 45.5 74.1984 45.6 73.9984 45.6Z" fill="#F07346"/>
<path d="M105.7 44.1C105.6 44.1 105.5 44.1 105.4 44.1L97.5002 40.9C97.2002 40.8 97.0002 40.4 97.1002 40C97.2002 39.7 97.6002 39.5 98.0002 39.6L105.9 42.8C106.2 42.9 106.4 43.3 106.3 43.7C106.2 43.9 106 44.1 105.7 44.1Z" fill="#F07346"/>
<path d="M112.3 59.9C112.2 59.9 112.2 59.9 112.1 59.9C111.7 59.8 111.5 59.4 111.6 59.1L114.2 50.1C114.3 49.7 114.7 49.5 115 49.6C115.4 49.7 115.6 50.1 115.5 50.4L112.9 59.4C112.8 59.7 112.5 59.9 112.3 59.9Z" fill="#F07346"/>
<path d="M103.101 86.2C102.801 86.2 102.601 86 102.501 85.8C102.401 85.5 102.501 85.1 102.901 84.9L107.301 83.2C107.601 83.1 108.001 83.2 108.201 83.6C108.301 83.9 108.201 84.3 107.801 84.5L103.401 86.2C103.301 86.2 103.201 86.2 103.101 86.2Z" fill="#F07346"/>
<path d="M59.4 42.2C59.2 42.2 59.1 42.1 58.9 42L54.6 37.9C54.3 37.6 54.3 37.2 54.6 37C54.9 36.7 55.3 36.7 55.5 37L59.8 41.1C60.1 41.4 60.1 41.8 59.8 42C59.8 42.1 59.6 42.2 59.4 42.2Z" fill="#F07346"/>
<path d="M77.1003 67.6C76.9003 67.6 76.7003 67.5 76.6003 67.4C76.4003 67.1 76.4003 66.7 76.7003 66.5L82.7003 61.5C83.0003 61.3 83.4003 61.3 83.6003 61.6C83.8003 61.9 83.8003 62.3 83.5003 62.5L77.5003 67.5C77.4003 67.6 77.2003 67.6 77.1003 67.6Z" fill="#F07346"/>
<path d="M47.7003 94.9C47.6003 94.9 47.6003 94.9 47.5003 94.9L45.9003 94.4C45.5003 94.3 45.3003 93.9 45.5003 93.6C45.6003 93.2 46.0003 93 46.3003 93.2L47.9003 93.7C48.3003 93.8 48.5003 94.2 48.3003 94.5C48.2003 94.7 48.0003 94.9 47.7003 94.9Z" fill="#F07346"/>
<path d="M87.0009 34.5C86.8009 34.5 86.6009 34.4 86.4009 34.2L83.9009 30.6C83.7009 30.3 83.8009 29.9 84.1009 29.7C84.4009 29.5 84.8009 29.6 85.0009 29.9L87.5009 33.5C87.7009 33.8 87.6009 34.2 87.3009 34.4C87.2009 34.5 87.1009 34.5 87.0009 34.5Z" fill="#F07346"/>
<path d="M77.9016 83.7C77.8016 83.7 77.7016 83.7 77.6016 83.6L71.0016 80.4C70.7016 80.2 70.5016 79.8 70.7016 79.5C70.9016 79.2 71.3016 79 71.6016 79.2L78.2016 82.4C78.5016 82.6 78.7016 83 78.5016 83.3C78.3016 83.5 78.1016 83.7 77.9016 83.7Z" fill="#F07346"/>
<path d="M87.1005 50.1C87.0005 50.1 87.0005 50.1 86.9005 50.1C86.5005 50 86.3005 49.6 86.4005 49.3L86.9005 47.2C87.0005 46.8 87.4005 46.6 87.7005 46.7C88.1005 46.8 88.3005 47.2 88.2005 47.5L87.7005 49.6C87.7005 49.9 87.4005 50.1 87.1005 50.1Z" fill="#F07346"/>
<path d="M104.702 70.3L99.7016 69.9C99.3016 69.9 99.1016 69.5 99.1016 69.2C99.1016 68.9 99.4016 68.6 99.8016 68.6L104.802 69C105.202 69 105.402 69.4 105.402 69.7C105.302 70.1 105.102 70.3 104.702 70.3Z" fill="#F07346"/>
<path d="M104.7 113.8C104.5 113.8 104.2 113.7 104.1 113.4C103.9 113.1 104.1 112.7 104.4 112.5L106.8 111.3C107.1 111.1 107.5 111.3 107.7 111.6C107.9 111.9 107.7 112.3 107.4 112.5L105 113.7C104.9 113.7 104.8 113.8 104.7 113.8Z" fill="#F07346"/>
<path d="M74.7019 100C74.6019 100 74.4019 100 74.3019 99.9C74.0019 99.7 74.0019 99.3 74.2019 99L76.7019 95.7C76.9019 95.4 77.3019 95.4 77.6019 95.6C77.9019 95.8 77.9019 96.2 77.7019 96.5L75.2019 99.8C75.1019 100 74.9019 100 74.7019 100Z" fill="#F07346"/>
<path d="M133.098 100.4C132.798 100.4 132.498 100.2 132.398 99.8L131.898 96.8C131.798 96.4 132.098 96.1 132.498 96C132.898 95.9 133.198 96.2 133.298 96.6L133.798 99.6C133.898 100 133.598 100.3 133.198 100.4H133.098Z" fill="#F07346"/>
<path d="M63.8985 91.6C63.7985 91.6 63.6985 91.6 63.5985 91.5L58.7985 89.4C58.4985 89.3 58.2985 88.9 58.4985 88.5C58.5985 88.2 58.9985 88 59.3985 88.2L64.1985 90.3C64.4985 90.4 64.6985 90.8 64.4985 91.2C64.3985 91.4 64.1985 91.6 63.8985 91.6Z" fill="#F07346"/>
<path d="M117.899 77.5C117.799 77.5 117.699 77.5 117.599 77.4C117.299 77.2 117.099 76.8 117.299 76.5L121.899 67.5C122.099 67.2 122.499 67 122.799 67.2C123.099 67.4 123.299 67.8 123.099 68.1L118.499 77.1C118.399 77.3 118.099 77.5 117.899 77.5Z" fill="#F07346"/>
<path d="M44.8016 114.7C44.4016 114.7 44.1016 114.4 44.1016 114L44.3016 104.1C44.3016 103.7 44.6016 103.4 45.0016 103.4C45.4016 103.4 45.7016 103.7 45.7016 104.1L45.5016 114C45.5016 114.4 45.2016 114.7 44.8016 114.7Z" fill="#F07346"/>
<path d="M48.9994 54.8C48.7994 54.8 48.5994 54.7 48.3994 54.5L46.2994 51.2C46.0994 50.9 46.1994 50.5 46.4994 50.3C46.7994 50.1 47.1994 50.2 47.3994 50.5L49.4994 53.8C49.6994 54.1 49.5994 54.5 49.2994 54.7C49.1994 54.8 49.0994 54.8 48.9994 54.8Z" fill="#F07346"/>
<path d="M134.001 38L131.901 37.8C131.501 37.8 131.301 37.4 131.301 37.1C131.301 36.7 131.701 36.5 132.001 36.5L134.101 36.7C134.501 36.7 134.701 37.1 134.701 37.4C134.601 37.7 134.401 38 134.001 38Z" fill="#F07346"/>
<path d="M124.3 26.9C124.2 26.9 124.2 26.9 124.1 26.9L120.9 26.1C120.5 26 120.3 25.6 120.4 25.3C120.5 24.9 120.9 24.7 121.2 24.8L124.4 25.6C124.8 25.7 125 26.1 124.9 26.4C124.9 26.7 124.6 26.9 124.3 26.9Z" fill="#F07346"/>
<path d="M60.7008 73.4C60.4008 73.4 60.1008 73.1 60.0008 72.8L59.3008 66.6C59.3008 66.2 59.5008 65.9 59.9008 65.9C60.3008 65.9 60.6008 66.1 60.6008 66.5L61.3008 72.7C61.5008 73.1 61.2008 73.4 60.7008 73.4C60.8008 73.4 60.8008 73.4 60.7008 73.4Z" fill="#F07346"/>
<path d="M171.8 99.9C171.5 99.9 171.3 99.7 171.2 99.4L170.2 96.5C170.1 96.2 170.3 95.8 170.6 95.6C170.9 95.5 171.3 95.7 171.5 96L172.5 98.9C172.6 99.2 172.4 99.6 172.1 99.8C172 99.9 171.9 99.9 171.8 99.9Z" fill="#F07346"/>
<path d="M148.6 40C148.5 40 148.3 40 148.2 39.8C147.9 39.6 147.9 39.1 148.1 38.9L149.6 37.1C149.8 36.8 150.3 36.8 150.5 37C150.7 37.2 150.8 37.7 150.6 37.9L149.1 39.7C149 39.9 148.8 40 148.6 40Z" fill="#F07346"/>
<path d="M149.5 19.3C149.5 19.3 149.4 19.3 149.5 19.3L142 20.2C143.5 19.4 145.2 19 147 19C147.9 19 148.7 19.1 149.5 19.3Z" fill="#F07346"/>
<path d="M179.5 41.3C179.4 41.4 179.2 41.4 179.1 41.4C178.9 41.4 178.7 41.3 178.6 41.1L175.4 36.8C175.8 36.6 176.2 36.3 176.6 36.1L179.7 40.3C179.8 40.6 179.8 41.1 179.5 41.3Z" fill="#F07346"/>
<path d="M174.301 84.7H174.201L171.301 84.2C170.901 84.1 170.701 83.8 170.801 83.4C170.901 83 171.201 82.8 171.601 82.9L174.501 83.4C174.901 83.5 175.101 83.8 175.001 84.2C174.901 84.4 174.701 84.7 174.301 84.7Z" fill="#F07346"/>
<path d="M170.399 72C170.099 72 169.799 71.8 169.699 71.5L167.699 62.3C167.599 61.9 167.799 61.6 168.199 61.5C168.599 61.4 168.899 61.6 168.999 62L170.999 71.2C171.099 71.6 170.899 71.9 170.499 72C170.499 72 170.499 72 170.399 72Z" fill="#F07346"/>
<path d="M155.8 114.9C155.6 114.9 155.5 114.8 155.3 114.7L153.6 113C153.3 112.7 153.3 112.3 153.6 112.1C153.9 111.8 154.3 111.8 154.5 112.1L156.2 113.8C156.5 114.1 156.5 114.5 156.2 114.7C156.1 114.9 156 114.9 155.8 114.9Z" fill="#F07346"/>
<path d="M141.5 92.9C141.2 92.9 141 92.7 140.9 92.4L138.1 84.1C138 83.8 138.2 83.4 138.5 83.2C138.9 83.1 139.2 83.3 139.4 83.6L142.2 91.9C142.3 92.2 142.1 92.6 141.8 92.8C141.7 92.8 141.6 92.9 141.5 92.9Z" fill="#F07346"/>
<path d="M156.299 62.2C156.099 62.2 155.999 62.1 155.799 62L148.299 54.9C147.999 54.6 147.999 54.2 148.299 54C148.599 53.7 148.999 53.7 149.199 54L156.699 61.1C156.999 61.4 156.999 61.8 156.699 62C156.699 62.2 156.499 62.2 156.299 62.2Z" fill="#F07346"/>
<path d="M157.601 101.7C157.301 101.7 157.001 101.5 156.901 101.2L155.301 93.4C155.201 93 155.501 92.7 155.801 92.6C156.201 92.5 156.501 92.8 156.601 93.1L158.201 100.9C158.301 101.3 158.001 101.6 157.701 101.7C157.701 101.6 157.601 101.7 157.601 101.7Z" fill="#F07346"/>
<path d="M138.401 53.8C138.001 53.8 137.801 53.5 137.701 53.2L137.301 48.1C137.301 47.7 137.501 47.4 137.901 47.4C138.301 47.4 138.601 47.6 138.601 48L139.001 53.1C139.101 53.5 138.801 53.8 138.401 53.8C138.501 53.8 138.401 53.8 138.401 53.8Z" fill="#F07346"/>
<path d="M158.401 80.3C158.301 80.3 158.101 80.3 158.001 80.2L151.101 75.7C150.801 75.5 150.701 75.1 150.901 74.8C151.101 74.5 151.501 74.4 151.801 74.6L158.701 79.1C159.001 79.3 159.101 79.7 158.901 80C158.801 80.1 158.601 80.3 158.401 80.3Z" fill="#F07346"/>
<path d="M139.302 113H139.202C138.802 112.9 138.602 112.6 138.602 112.2L139.802 104.5C139.902 104.1 140.202 103.9 140.602 103.9C141.002 104 141.202 104.3 141.202 104.7L140.002 112.4C139.902 112.7 139.602 113 139.302 113Z" fill="#F07346"/>
<path d="M155 147C154.6 147.4 154.3 147.7 153.9 148.1L152.6 147.7C152.2 147.6 152 147.2 152.2 146.9C152.3 146.6 152.7 146.3 153 146.5L155 147Z" fill="#F07346"/>
<path d="M138.199 159.7C137.799 159.9 137.299 160.2 136.899 160.4L136.699 154.2C136.699 153.8 136.999 153.5 137.299 153.5C137.699 153.5 137.999 153.8 137.999 154.1L138.199 159.7Z" fill="#F07346"/>
<path d="M171.2 133.2C171.1 132.8 171 132.4 171 132C171 131.8 171 131.7 171 131.5L171.2 133.2Z" fill="#F07346"/>
<path d="M152.2 133.8C151.9 133.8 151.6 133.6 151.5 133.2C151.4 132.8 151.7 132.5 152 132.4L157.2 131.5C157.6 131.4 157.9 131.7 158 132C158.1 132.4 157.8 132.7 157.5 132.8L152.3 133.7C152.3 133.8 152.2 133.8 152.2 133.8Z" fill="#F07346"/>
<path d="M88.9986 117.3C88.8986 117.3 88.7986 117.3 88.5986 117.2L85.1986 115.1C84.8986 114.9 84.7986 114.5 84.9986 114.2C85.1986 113.9 85.5986 113.8 85.8986 114L89.2986 116.1C89.5986 116.3 89.6986 116.7 89.4986 117C89.3986 117.2 89.1986 117.3 88.9986 117.3Z" fill="#F07346"/>
<path d="M120.499 154.5C120.399 154.5 120.399 154.5 120.299 154.5C119.899 154.4 119.699 154.1 119.799 153.7L120.299 151.5C120.399 151.1 120.799 150.9 121.099 151C121.499 151.1 121.699 151.4 121.599 151.8L121.099 154C121.099 154.3 120.799 154.5 120.499 154.5Z" fill="#F07346"/>
<path d="M112.7 122.1H112.6C112.2 122 112 121.7 112 121.3L112.9 116C113 115.6 113.3 115.4 113.7 115.4C114.1 115.5 114.3 115.8 114.3 116.2L113.4 121.5C113.3 121.9 113 122.1 112.7 122.1Z" fill="#F07346"/>
<path d="M119.2 137.6C118.9 137.6 118.6 137.4 118.5 137L118 134C117.9 133.6 118.2 133.3 118.5 133.2C118.9 133.1 119.2 133.4 119.3 133.7L119.9 136.8C120 137.2 119.7 137.5 119.4 137.6C119.3 137.6 119.3 137.6 119.2 137.6Z" fill="#F07346"/>
<path d="M48.8016 131.4C48.6016 131.4 48.3016 131.3 48.2016 131.1L47.2016 129.3C47.0016 129 47.1016 128.6 47.5016 128.4C47.8016 128.2 48.2016 128.3 48.4016 128.7L49.4016 130.5C49.6016 130.8 49.5016 131.2 49.1016 131.4C49.0016 131.4 48.9016 131.4 48.8016 131.4Z" fill="#F07346"/>
<path d="M89.4001 131.5C89.2001 131.5 88.9001 131.4 88.8001 131.2L86.6001 127.5C86.4001 127.2 86.5001 126.8 86.8001 126.6C87.1001 126.4 87.5001 126.5 87.7001 126.8L89.9001 130.5C90.1001 130.8 90.0001 131.2 89.7001 131.4C89.6001 131.4 89.5001 131.5 89.4001 131.5Z" fill="#F07346"/>
<path d="M135.002 150C134.902 150 134.902 150 135.002 150L132.702 149.8C132.302 149.8 132.102 149.4 132.102 149.1C132.102 148.7 132.502 148.5 132.802 148.5L135.002 148.7C135.402 148.7 135.602 149.1 135.602 149.4C135.602 149.8 135.302 150 135.002 150Z" fill="#F07346"/>
<path d="M83.7009 166.8C83.2009 166.7 82.7009 166.6 82.3009 166.4L81.8009 163.9C81.7009 163.5 82.0009 163.2 82.3009 163.1C82.7009 163 83.0009 163.3 83.1009 163.6L83.7009 166.8Z" fill="#F07346"/>
<path d="M60.1981 150.6C59.8981 150.6 59.5981 150.4 59.5981 150.1L56.9981 141.2C56.8981 140.8 57.0981 140.5 57.4981 140.4C57.8981 140.3 58.1981 140.5 58.2981 140.9L60.8981 149.8C60.9981 150.2 60.7981 150.5 60.3981 150.6C60.2981 150.6 60.2981 150.6 60.1981 150.6Z" fill="#F07346"/>
<path d="M75.8986 154.7C75.6986 154.7 75.4986 154.6 75.2986 154.4L73.9986 152.5C73.7986 152.2 73.8986 151.8 74.1986 151.6C74.4986 151.4 74.8986 151.5 75.0986 151.8L76.3986 153.7C76.5986 154 76.4986 154.4 76.1986 154.6C76.0986 154.6 75.9986 154.7 75.8986 154.7Z" fill="#F07346"/>
<path d="M133.098 138.7C132.698 138.7 132.398 138.4 132.398 138L132.898 128.9C132.898 128.5 133.198 128.2 133.598 128.3C133.998 128.3 134.298 128.6 134.198 129L133.698 138.1C133.798 138.4 133.498 138.7 133.098 138.7Z" fill="#F07346"/>
<path d="M61.0006 128.1C60.7006 128.1 60.4006 127.9 60.3006 127.5C60.2006 127.1 60.5006 126.8 60.9006 126.7L66.7006 125.8C67.1006 125.7 67.4006 126 67.5006 126.4C67.6006 126.8 67.3006 127.1 66.9006 127.2L61.1006 128.1C61.0006 128.1 61.0006 128.1 61.0006 128.1Z" fill="#F07346"/>
<path d="M115.598 167.8C114.798 167.9 114.098 168.1 113.298 168.2L110.798 167C110.498 166.8 110.298 166.4 110.498 166.1C110.698 165.8 111.098 165.6 111.398 165.8L115.598 167.8Z" fill="#F07346"/>
<path d="M107.001 153C107.001 153 106.901 153 107.001 153C106.601 153 106.301 152.6 106.301 152.3L106.701 147.8C106.701 147.4 107.101 147.2 107.401 147.2C107.801 147.2 108.001 147.6 108.001 147.9L107.601 152.4C107.601 152.7 107.301 153 107.001 153Z" fill="#F07346"/>
<path d="M93.0019 151.6C92.8019 151.6 92.6019 151.5 92.5019 151.4L87.2019 145.1C87.0019 144.8 87.0019 144.4 87.3019 144.2C87.6019 144 88.0019 144 88.2019 144.3L93.5019 150.6C93.7019 150.9 93.7019 151.3 93.4019 151.5C93.3019 151.5 93.1019 151.6 93.0019 151.6Z" fill="#F07346"/>
<path d="M35.9993 150C35.9993 150.5 35.9993 151 35.8993 151.5L35.1993 151.8C35.0993 151.8 34.9993 151.8 34.9993 151.8C34.6993 151.8 34.4993 151.6 34.3993 151.4C34.2993 151.1 34.3993 150.7 34.7993 150.5L35.9993 150Z" fill="#F07346"/>
<path d="M56.3017 116.6C56.1017 116.6 55.8017 116.5 55.7017 116.3C55.5017 116 55.6017 115.6 55.9017 115.4L58.3017 114C58.6017 113.8 59.0017 113.9 59.2017 114.2C59.4017 114.5 59.3017 114.9 59.0017 115.1L56.6017 116.5C56.6017 116.5 56.4017 116.6 56.3017 116.6Z" fill="#F07346"/>
<path d="M105.7 134.8L100.1 134.1C99.7 134.1 99.5 133.7 99.5 133.3C99.5 132.9 99.9 132.7 100.3 132.7L105.8 133.4C106.2 133.4 106.4 133.8 106.4 134.2C106.3 134.5 106.1 134.8 105.7 134.8Z" fill="#F07346"/>
<path d="M70.8994 140.2C70.6994 140.2 70.4994 140.1 70.2994 139.9C70.0994 139.6 70.1994 139.2 70.4994 139L77.6994 133.9C77.9994 133.7 78.3994 133.8 78.5994 134.1C78.7994 134.4 78.6994 134.8 78.3994 135L71.1994 140.1C71.1994 140.1 71.0994 140.2 70.8994 140.2Z" fill="#F07346"/>
<path d="M98.1997 168.9C97.6997 168.9 97.2997 168.9 96.7997 168.8L95.5997 163.9C95.4997 163.5 95.6997 163.2 96.0997 163.1C96.4997 163 96.7997 163.2 96.8997 163.6L98.1997 168.9Z" fill="#F07346"/>
<path d="M64 57L70.9 135.3L74.4 136.3L76.1 136.8L102.1 144.1L132.7 135.5L133.2 135.4L133.8 128.3L140 57H64ZM125.2 82.6L124.3 92.4L122.8 109.7L122.7 111L121.7 121.9L102 127.4L82.3 121.9L80.9 106.5H90.5L91.2 114.5L101.9 117.4L112.6 114.5L114.1 101.2L80.4 101.3L79.4 92.2L89.1 92.1H90.6L114.9 91.8L115.6 82L78.5 82.1L77.9 73H126L125.2 82.6Z" fill="white"/>
<path d="M179.5 106C184.194 106 188 102.194 188 97.5C188 92.8056 184.194 89 179.5 89C174.806 89 171 92.8056 171 97.5C171 102.194 174.806 106 179.5 106Z" fill="#DD00A0"/>
<path d="M110.5 17C115.194 17 119 13.1944 119 8.5C119 3.80558 115.194 0 110.5 0C105.806 0 102 3.80558 102 8.5C102 13.1944 105.806 17 110.5 17Z" fill="#DD00A0"/>
<path d="M193 46.5C193 52.8 187.8 58 181.5 58C175.2 58 170 52.8 170 46.5C170 42.4 172.1 38.9 175.3 36.8C175.7 36.6 176.1 36.3 176.5 36.1C178 35.4 179.7 34.9 181.5 34.9C187.8 35 193 40.2 193 46.5Z" fill="#8BE405"/>
<path d="M184.5 161C189.194 161 193 157.194 193 152.5C193 147.806 189.194 144 184.5 144C179.806 144 176 147.806 176 152.5C176 157.194 179.806 161 184.5 161Z" fill="#F70400"/>
<path d="M53.5 17C58.1944 17 62 13.1944 62 8.5C62 3.80558 58.1944 0 53.5 0C48.8056 0 45 3.80558 45 8.5C45 13.1944 48.8056 17 53.5 17Z" fill="#F70400"/>
<path d="M75 21C78.866 21 82 17.866 82 14C82 10.134 78.866 7 75 7C71.134 7 68 10.134 68 14C68 17.866 71.134 21 75 21Z" fill="#FFCA06"/>
<path d="M19 36C22.866 36 26 32.866 26 29C26 25.134 22.866 22 19 22C15.134 22 12 25.134 12 29C12 32.866 15.134 36 19 36Z" fill="#0899FD"/>
<path d="M179 132C179 134.2 177.2 136 175 136C173.2 136 171.7 134.8 171.2 133.2C171.1 132.8 171 132.4 171 132C171 131.8 171 131.7 171 131.5C171.2 129.5 172.9 128 175 128C177.2 128 179 129.8 179 132Z" fill="#0899FD"/>
<path d="M44 39C44 41.2 42.2 43 40 43C37.8 43 36 41.2 36 39C36 37.7 36.6 36.5 37.6 35.8C38 35.5 38.4 35.3 38.8 35.2C39.2 35.1 39.6 35 40 35C42.2 35 44 36.8 44 39Z" fill="#F70400"/>
<path d="M193 118C199.075 118 204 113.075 204 107C204 100.925 199.075 96 193 96C186.925 96 182 100.925 182 107C182 113.075 186.925 118 193 118Z" fill="#0899FD"/>
<path d="M7 103C10.866 103 14 99.866 14 96C14 92.134 10.866 89 7 89C3.13401 89 0 92.134 0 96C0 99.866 3.13401 103 7 103Z" fill="#FFCA06"/>
<path d="M140 14C143.866 14 147 10.866 147 7C147 3.13401 143.866 0 140 0C136.134 0 133 3.13401 133 7C133 10.866 136.134 14 140 14Z" fill="#FFCA06"/>
<path d="M36 150C36 150.5 36 151 35.9 151.5C35.2 156.8 30.6 161 25 161C18.9 161 14 156.1 14 150C14 143.9 18.9 139 25 139C31.1 139 36 143.9 36 150Z" fill="#0899FD"/>
<path d="M16 126C18.2091 126 20 124.209 20 122C20 119.791 18.2091 118 16 118C13.7909 118 12 119.791 12 122C12 124.209 13.7909 126 16 126Z" fill="#8BE405"/>
<path fill-rule="evenodd" clip-rule="evenodd" d="M157.999 30C157.999 33.8 156.099 37.2 153.099 39.1C152.999 39 152.799 38.9 152.699 38.8C152.299 38.4 151.899 38.1 151.599 37.8C150.999 37.2 150.299 36.7 149.699 36.2C149.299 35.9 148.899 35.5 148.499 35.3C148.299 35.2 148.199 35 147.999 34.9C147.599 34.6 147.199 34.3 146.799 34C146.299 33.6 145.799 33.3 145.299 32.9C144.899 32.6 144.399 32.3 143.999 32C143.899 31.9 143.799 31.9 143.699 31.8C143.199 31.5 142.799 31.2 142.299 30.9C141.199 30.2 139.999 29.5 138.899 28.8C138.599 28.6 138.299 28.5 137.999 28.3C137.699 28.1 137.399 28 137.099 27.8C136.799 27.6 136.499 27.5 136.199 27.3C136.999 24.2 139.099 21.6 141.799 20.2C143.299 19.4 144.999 19 146.799 19C147.699 19 148.499 19.1 149.299 19.3C154.399 20.4 157.999 24.8 157.999 30Z" fill="#0899FD"/>
<path fill-rule="evenodd" clip-rule="evenodd" d="M30.4 71.5C29.2 68.3 26.1 66 22.5 66C17.8 66 14 69.8 14 74.5C14 79.2 17.8 83 22.5 83C24.7 83 26.6 82.2 28.1 80.9C28.7 77.6 29.5 74.5 30.4 71.5Z" fill="#8BE405"/>
</svg>
