<svg width="204" height="169" viewBox="0 0 204 169" fill="none" xmlns="http://www.w3.org/2000/svg">
<g clip-path="url(#clip0_5505_153128)">
<path d="M102 169C143.421 169 177 135.421 177 94C177 52.5786 143.421 19 102 19C60.5786 19 27 52.5786 27 94C27 135.421 60.5786 169 102 169Z" fill="#F4E041"/>
<mask id="mask0_5505_153128" style="mask-type:alpha" maskUnits="userSpaceOnUse" x="27" y="19" width="150" height="150">
<path d="M102 169C143.421 169 177 135.421 177 94C177 52.5786 143.421 19 102 19C60.5786 19 27 52.5786 27 94C27 135.421 60.5786 169 102 169Z" fill="#F4E041"/>
</mask>
<g mask="url(#mask0_5505_153128)">
<path d="M33.7 91.5C33.3 91.5 33 91.2 33 90.8L33.2 82C33.2 81.6 33.5 81.3 33.9 81.3C34.3 81.3 34.6 81.6 34.6 82L34.4 90.8C34.4 91.2 34.1 91.5 33.7 91.5Z" fill="#F7E664"/>
<path d="M68.2995 56.7C68.1995 56.7 68.1994 56.7 68.0994 56.7L62.6995 54.9C62.3995 54.8 62.1995 54.4 62.2995 54.1C62.3995 53.8 62.7994 53.6 63.0994 53.7L68.4995 55.5C68.7995 55.6 68.9995 56 68.8995 56.3C68.7995 56.5 68.5995 56.7 68.2995 56.7Z" fill="#F7E664"/>
<path d="M116.299 36.3C116.199 36.3 115.999 36.3 115.899 36.2L113.499 34.5C113.199 34.3 113.099 33.9 113.299 33.6C113.499 33.3 113.899 33.2 114.199 33.4L116.599 35.1C116.899 35.3 116.999 35.7 116.799 36C116.699 36.2 116.499 36.3 116.299 36.3Z" fill="#F7E664"/>
<path d="M101.1 26.2C101 26.2 100.8 26.2 100.7 26.1L95.3001 22.5C95.0001 22.3 94.9001 21.9 95.1001 21.6C95.3001 21.3 95.7001 21.2 96.0001 21.4L101.4 25C101.7 25.2 101.8 25.6 101.6 25.9C101.5 26.1 101.3 26.2 101.1 26.2Z" fill="#F7E664"/>
<path d="M117.9 99C117.6 99 117.3 98.8 117.2 98.4L116.5 93.3C116.5 92.9 116.7 92.6 117.1 92.5C117.5 92.4 117.8 92.7 117.9 93.1L118.6 98.2C118.6 98.6 118.4 98.9 117.9 99C118 99 117.9 99 117.9 99Z" fill="#F7E664"/>
<path d="M90.1989 77.6C89.8989 77.6 89.5989 77.4 89.4989 77.1L88.7989 74.3C88.6989 73.9 88.8989 73.6 89.2989 73.5C89.6989 73.4 89.9989 73.6 90.0989 74L90.7989 76.8C90.8989 77.2 90.6989 77.5 90.2989 77.6C90.2989 77.6 90.2989 77.6 90.1989 77.6Z" fill="#F7E664"/>
<path d="M134.699 72.7C134.399 72.7 134.099 72.5 133.999 72.1L133.099 66.4C132.999 66 133.299 65.7 133.699 65.6C134.099 65.5 134.399 65.8 134.499 66.2L135.399 71.9C135.499 72.3 135.199 72.6 134.799 72.7C134.699 72.7 134.699 72.7 134.699 72.7Z" fill="#F7E664"/>
<path d="M64.2998 33.2C64.1998 33.2 64.0998 33.2 63.8998 33.1C63.5998 32.9 63.4998 32.5 63.6998 32.2L66.5998 27.5C66.7998 27.2 67.1998 27.1 67.4998 27.3C67.7998 27.5 67.8998 27.9 67.6998 28.2L64.7998 32.9C64.7998 33 64.4998 33.2 64.2998 33.2Z" fill="#F7E664"/>
<path d="M102.2 100.3C101.9 100.3 101.6 100.1 101.5 99.8C101.4 99.4 101.6 99.1 102 99L104.7 98.4C105.1 98.3 105.4 98.5 105.5 98.9C105.6 99.3 105.4 99.6 105 99.7L102.3 100.3H102.2Z" fill="#F7E664"/>
<path d="M40.2993 69.3C39.9993 69.3 39.6993 69.1 39.6993 68.8C39.5993 68.4 39.7993 68.1 40.1993 68L46.5993 66.2C46.9993 66.1 47.2993 66.3 47.3993 66.7C47.4993 67.1 47.2993 67.4 46.8993 67.5L40.4993 69.3C40.3993 69.3 40.2993 69.3 40.2993 69.3Z" fill="#F7E664"/>
<path d="M39.7997 40C39.4997 40 39.2997 39.8 39.1997 39.6L36.7997 33.9C36.6997 33.6 36.7997 33.2 37.1997 33C37.4997 32.9 37.8997 33 38.0997 33.4L40.4997 39.1C40.5997 39.4 40.4997 39.8 40.0997 40C39.9997 40 39.8997 40 39.7997 40Z" fill="#F7E664"/>
<path d="M129.098 85.8C128.798 85.8 128.498 85.6 128.398 85.2C128.398 84.8 128.598 84.5 128.998 84.4L134.298 83.7C134.698 83.7 134.998 83.9 135.098 84.3C135.198 84.7 134.898 85 134.498 85.1L129.098 85.8Z" fill="#F7E664"/>
<path d="M97.3991 57.8C97.0991 57.8 96.7991 57.6 96.6991 57.2C96.5991 56.8 96.8991 56.5 97.2991 56.4L99.0991 56.1C99.4991 56 99.7991 56.3 99.8991 56.7C99.9991 57.1 99.6991 57.4 99.2991 57.5L97.4991 57.8C97.4991 57.8 97.4991 57.8 97.3991 57.8Z" fill="#F7E664"/>
<path d="M120.099 114.4C119.999 114.4 119.899 114.4 119.699 114.3C119.399 114.1 119.299 113.7 119.499 113.4L121.699 109.9C121.899 109.6 122.299 109.5 122.599 109.7C122.899 109.9 122.999 110.3 122.799 110.6L120.599 114.1C120.599 114.3 120.399 114.4 120.099 114.4Z" fill="#F7E664"/>
<path d="M49.7984 82.1C49.5984 82.1 49.3984 82 49.2984 81.9L46.5984 78.8C46.3984 78.5 46.3984 78.1 46.6984 77.9C46.9984 77.7 47.3984 77.7 47.5984 78L50.2984 81.1C50.4984 81.4 50.4984 81.8 50.1984 82C50.0984 82 49.8984 82.1 49.7984 82.1Z" fill="#F7E664"/>
<path d="M88.9989 94.7C88.8989 94.7 88.7989 94.7 88.6989 94.6C88.3989 94.4 88.1989 94 88.3989 93.7L90.6989 88.6C90.8989 88.3 91.2989 88.1 91.5989 88.3C91.8989 88.5 92.0989 88.9 91.8989 89.2L89.5989 94.3C89.5989 94.5 89.2989 94.7 88.9989 94.7Z" fill="#F7E664"/>
<path d="M73.9984 45.6C73.7984 45.6 73.6984 45.5 73.4984 45.4C73.1984 45.2 73.1984 44.7 73.4984 44.5L74.9984 42.8C75.1984 42.5 75.6984 42.5 75.8984 42.8C76.1984 43 76.1984 43.5 75.8984 43.7L74.3984 45.4C74.3984 45.5 74.1984 45.6 73.9984 45.6Z" fill="#F7E664"/>
<path d="M38.9991 24.4C38.8991 24.4 38.8991 24.4 38.7991 24.4C38.4991 24.3 38.2991 23.9 38.3991 23.5L40.4991 17.5C40.5991 17.2 40.9991 17 41.3991 17.1C41.6991 17.2 41.8991 17.6 41.7991 18L39.6991 24C39.4991 24.2 39.2991 24.4 38.9991 24.4Z" fill="#F7E664"/>
<path d="M105.7 44.1C105.6 44.1 105.5 44.1 105.4 44.1L97.5002 40.9C97.2002 40.8 97.0002 40.4 97.1002 40C97.2002 39.7 97.6002 39.5 98.0002 39.6L105.9 42.8C106.2 42.9 106.4 43.3 106.3 43.7C106.2 43.9 106 44.1 105.7 44.1Z" fill="#F7E664"/>
<path d="M30.1997 63.3H30.0997C29.6997 63.2 29.4997 62.9 29.5997 62.5L31.1997 54.5C31.2997 54.1 31.5997 53.9 31.9997 54C32.3997 54.1 32.5997 54.4 32.4997 54.8L30.8997 62.8C30.7997 63.1 30.5997 63.3 30.1997 63.3Z" fill="#F7E664"/>
<path d="M112.3 59.9C112.2 59.9 112.2 59.9 112.1 59.9C111.7 59.8 111.5 59.4 111.6 59.1L114.2 50.1C114.3 49.7 114.7 49.5 115 49.6C115.4 49.7 115.6 50.1 115.5 50.4L112.9 59.4C112.8 59.7 112.5 59.9 112.3 59.9Z" fill="#F7E664"/>
<path d="M103.099 86.2C102.799 86.2 102.599 86 102.499 85.8C102.399 85.5 102.499 85.1 102.899 84.9L107.299 83.2C107.599 83.1 107.999 83.2 108.199 83.6C108.299 83.9 108.199 84.3 107.799 84.5L103.399 86.2C103.299 86.2 103.199 86.2 103.099 86.2Z" fill="#F7E664"/>
<path d="M59.4 42.2C59.2 42.2 59.1 42.1 58.9 42L54.6 37.9C54.3 37.6 54.3 37.2 54.6 37C54.9 36.7 55.3 36.7 55.5 37L59.8 41.1C60.1 41.4 60.1 41.8 59.8 42C59.8 42.1 59.6 42.2 59.4 42.2Z" fill="#F7E664"/>
<path d="M77.0984 67.6C76.8984 67.6 76.6984 67.5 76.5984 67.4C76.3984 67.1 76.3984 66.7 76.6984 66.5L82.6984 61.5C82.9984 61.3 83.3984 61.3 83.5984 61.6C83.7984 61.9 83.7984 62.3 83.4984 62.5L77.4984 67.5C77.3984 67.6 77.1984 67.6 77.0984 67.6Z" fill="#F7E664"/>
<path d="M135.999 25.6C135.699 25.6 135.499 25.4 135.399 25.1L134.799 23.3C134.699 23 134.899 22.6 135.199 22.4C135.499 22.3 135.899 22.5 136.099 22.8L136.699 24.6C136.799 24.9 136.599 25.3 136.299 25.5C136.199 25.6 136.099 25.6 135.999 25.6Z" fill="#F7E664"/>
<path d="M47.6984 94.9C47.5984 94.9 47.5984 94.9 47.4984 94.9L45.8984 94.4C45.4984 94.3 45.2984 93.9 45.4984 93.6C45.5984 93.2 45.9984 93 46.2984 93.2L47.8984 93.7C48.2984 93.8 48.4984 94.2 48.2984 94.5C48.1984 94.7 47.9984 94.9 47.6984 94.9Z" fill="#F7E664"/>
<path d="M86.9986 34.5C86.7986 34.5 86.5986 34.4 86.3986 34.2L83.9986 30.6C83.7986 30.3 83.8986 29.9 84.1986 29.7C84.4986 29.5 84.8986 29.6 85.0986 29.9L87.5986 33.5C87.7986 33.8 87.6986 34.2 87.3986 34.4C87.1986 34.5 87.0986 34.5 86.9986 34.5Z" fill="#F7E664"/>
<path d="M77.8997 83.7C77.7997 83.7 77.6996 83.7 77.5996 83.6L70.9996 80.4C70.6996 80.2 70.4996 79.8 70.6996 79.5C70.8996 79.2 71.2996 79 71.5996 79.2L78.1996 82.4C78.4996 82.6 78.6996 83 78.4996 83.3C78.2996 83.5 78.0997 83.7 77.8997 83.7Z" fill="#F7E664"/>
<path d="M87.0985 50.1C86.9985 50.1 86.9985 50.1 86.8985 50.1C86.4985 50 86.2985 49.6 86.3985 49.3L86.8985 47.2C86.9985 46.8 87.3985 46.6 87.6985 46.7C88.0985 46.8 88.2985 47.2 88.1985 47.5L87.6985 49.6C87.6985 49.9 87.3985 50.1 87.0985 50.1Z" fill="#F7E664"/>
<path d="M28.7987 113.2C28.5987 113.2 28.3987 113.1 28.2987 113C27.9987 112.7 28.0987 112.3 28.2987 112.1L32.1987 108.4C32.4987 108.1 32.8987 108.2 33.0987 108.4C33.3987 108.7 33.2987 109.1 33.0987 109.3L29.1987 113C29.0987 113.1 28.8987 113.2 28.7987 113.2Z" fill="#F7E664"/>
<path d="M104.7 70.3L99.6996 69.9C99.2996 69.9 99.0996 69.5 99.0996 69.2C99.0996 68.8 99.3996 68.6 99.7996 68.6L104.8 69C105.2 69 105.4 69.4 105.4 69.7C105.3 70.1 105.1 70.3 104.7 70.3Z" fill="#F7E664"/>
<path d="M104.7 113.8C104.5 113.8 104.2 113.7 104.1 113.4C103.9 113.1 104.1 112.7 104.4 112.5L106.8 111.3C107.1 111.1 107.5 111.3 107.7 111.6C107.9 111.9 107.7 112.3 107.4 112.5L105 113.7C104.9 113.7 104.8 113.8 104.7 113.8Z" fill="#F7E664"/>
<path d="M74.6999 100C74.5999 100 74.3999 100 74.2999 99.9C73.9999 99.7 73.9999 99.3 74.1999 99L76.6999 95.7C76.8999 95.4 77.2999 95.4 77.5999 95.6C77.8999 95.8 77.8999 96.2 77.6999 96.5L75.1999 99.8C75.0999 100 74.8999 100 74.6999 100Z" fill="#F7E664"/>
<path d="M133.098 100.4C132.798 100.4 132.498 100.2 132.398 99.8L131.898 96.8C131.798 96.4 132.098 96.1 132.498 96C132.898 95.9 133.198 96.2 133.298 96.6L133.798 99.6C133.898 100 133.598 100.3 133.198 100.4H133.098Z" fill="#F7E664"/>
<path d="M63.8985 91.6C63.7985 91.6 63.6985 91.6 63.5985 91.5L58.7985 89.4C58.4985 89.3 58.2985 88.9 58.4985 88.5C58.5985 88.2 58.9985 88 59.3985 88.2L64.1985 90.3C64.4985 90.4 64.6985 90.8 64.4985 91.2C64.3985 91.4 64.1985 91.6 63.8985 91.6Z" fill="#F7E664"/>
<path d="M117.899 77.5C117.799 77.5 117.699 77.5 117.599 77.4C117.299 77.2 117.099 76.8 117.299 76.5L121.899 67.5C122.099 67.2 122.499 67 122.799 67.2C123.099 67.4 123.299 67.8 123.099 68.1L118.499 77.1C118.399 77.3 118.099 77.5 117.899 77.5Z" fill="#F7E664"/>
<path d="M44.7996 114.7C44.3996 114.7 44.0996 114.4 44.0996 114L44.2996 104.1C44.2996 103.7 44.5996 103.4 44.9996 103.4C45.3996 103.4 45.6996 103.7 45.6996 104.1L45.4996 114C45.4996 114.4 45.1996 114.7 44.7996 114.7Z" fill="#F7E664"/>
<path d="M48.9994 54.8C48.7994 54.8 48.5994 54.7 48.3994 54.5L46.2994 51.2C46.0994 50.9 46.1994 50.5 46.4994 50.3C46.7994 50.1 47.1994 50.2 47.3994 50.5L49.4994 53.8C49.6994 54.1 49.5994 54.5 49.2994 54.7C49.1994 54.8 49.0994 54.8 48.9994 54.8Z" fill="#F7E664"/>
<path d="M133.999 38L131.899 37.8C131.499 37.8 131.299 37.4 131.299 37.1C131.299 36.7 131.699 36.5 131.999 36.5L134.099 36.7C134.499 36.7 134.699 37.1 134.699 37.4C134.599 37.7 134.399 38 133.999 38Z" fill="#F7E664"/>
<path d="M124.299 26.9C124.199 26.9 124.199 26.9 124.099 26.9L120.899 26.1C120.499 26 120.299 25.6 120.399 25.3C120.499 24.9 120.899 24.7 121.199 24.8L124.399 25.6C124.799 25.7 124.999 26.1 124.899 26.4C124.799 26.7 124.599 26.9 124.299 26.9Z" fill="#F7E664"/>
<path d="M60.6988 73.4C60.3988 73.4 60.0988 73.1 59.9988 72.8L59.2988 66.6C59.2988 66.2 59.4988 65.9 59.8988 65.9C60.2988 65.9 60.5988 66.1 60.5988 66.5L61.2988 72.7C61.4988 73.1 61.1988 73.4 60.6988 73.4C60.7988 73.4 60.7988 73.4 60.6988 73.4Z" fill="#F7E664"/>
<path d="M171.8 99.9C171.5 99.9 171.3 99.7 171.2 99.4L170.2 96.5C170.1 96.2 170.3 95.8 170.6 95.6C171 95.5 171.3 95.7 171.5 96L172.5 98.9C172.6 99.2 172.4 99.6 172.1 99.8C172 99.9 171.9 99.9 171.8 99.9Z" fill="#F7E664"/>
<path d="M159.799 32.2C159.699 32.2 159.599 32.2 159.499 32.1C159.199 31.9 159.099 31.5 159.299 31.2L162.899 25.3C163.099 25 163.499 24.9 163.799 25.1C164.099 25.3 164.199 25.7 163.999 26L160.399 31.9C160.299 32.1 159.999 32.2 159.799 32.2Z" fill="#F7E664"/>
<path d="M182.9 24.7C182.8 24.7 182.6 24.7 182.5 24.6L176.9 20.9C176.6 20.7 176.5 20.3 176.7 20C176.9 19.7 177.3 19.6 177.6 19.8L183.2 23.5C183.5 23.7 183.6 24.1 183.4 24.4C183.3 24.6 183.1 24.7 182.9 24.7Z" fill="#F7E664"/>
<path d="M148.598 40C148.498 40 148.298 40 148.198 39.8C147.898 39.6 147.898 39.1 148.098 38.9L149.598 37.1C149.798 36.8 150.298 36.8 150.498 37C150.698 37.2 150.798 37.7 150.598 37.9L149.098 39.7C148.998 39.9 148.798 40 148.598 40Z" fill="#F7E664"/>
<path d="M140.899 20.3C140.599 20.3 140.299 20.1 140.199 19.7C140.199 19.3 140.399 19 140.799 19L149.199 18C149.599 18 149.899 18.2 149.899 18.6C149.899 19 149.699 19.3 149.299 19.3L140.899 20.3C140.999 20.3 140.899 20.3 140.899 20.3Z" fill="#F7E664"/>
<path d="M179.098 41.4C178.898 41.4 178.698 41.3 178.598 41.1L174.598 35.7C174.398 35.4 174.398 35 174.698 34.8C174.998 34.6 175.398 34.6 175.598 34.9L179.598 40.3C179.798 40.6 179.798 41 179.498 41.2C179.298 41.4 179.198 41.4 179.098 41.4Z" fill="#F7E664"/>
<path d="M174.299 84.7H174.199L171.299 84.2C170.899 84.1 170.699 83.8 170.799 83.4C170.899 83 171.199 82.8 171.599 82.9L174.499 83.4C174.899 83.5 175.099 83.8 174.999 84.2C174.899 84.4 174.699 84.7 174.299 84.7Z" fill="#F7E664"/>
<path d="M170.399 72C170.099 72 169.799 71.8 169.699 71.5L167.699 62.3C167.599 61.9 167.799 61.6 168.199 61.5C168.599 61.4 168.899 61.6 168.999 62L170.999 71.2C171.099 71.6 170.899 71.9 170.499 72C170.499 72 170.499 72 170.399 72Z" fill="#F7E664"/>
<path d="M164.9 48.7C164.7 48.7 164.5 48.6 164.4 48.4L162.2 45.3C162 45 162.1 44.6 162.4 44.4C162.7 44.2 163.1 44.3 163.3 44.6L165.5 47.7C165.7 48 165.6 48.4 165.3 48.6C165.1 48.6 165 48.7 164.9 48.7Z" fill="#F7E664"/>
<path d="M155.8 114.9C155.6 114.9 155.5 114.8 155.3 114.7L153.6 113C153.3 112.7 153.3 112.3 153.6 112.1C153.9 111.8 154.3 111.8 154.5 112.1L156.2 113.8C156.5 114.1 156.5 114.5 156.2 114.7C156.1 114.9 156 114.9 155.8 114.9Z" fill="#F7E664"/>
<path d="M141.5 92.9C141.2 92.9 141 92.7 140.9 92.4L138.1 84.1C138 83.8 138.2 83.4 138.5 83.2C138.8 83.1 139.2 83.3 139.4 83.6L142.2 91.9C142.3 92.2 142.1 92.6 141.8 92.8C141.7 92.8 141.6 92.9 141.5 92.9Z" fill="#F7E664"/>
<path d="M156.299 62.2C156.099 62.2 155.999 62.1 155.799 62L148.299 54.9C147.999 54.6 147.999 54.2 148.299 54C148.599 53.7 148.999 53.7 149.199 54L156.699 61.1C156.999 61.4 156.999 61.8 156.699 62C156.699 62.2 156.499 62.2 156.299 62.2Z" fill="#F7E664"/>
<path d="M157.599 101.7C157.299 101.7 156.999 101.5 156.899 101.2L155.299 93.4C155.199 93 155.499 92.7 155.799 92.6C156.199 92.5 156.499 92.8 156.599 93.1L158.199 100.9C158.299 101.3 157.999 101.6 157.699 101.7C157.699 101.6 157.599 101.7 157.599 101.7Z" fill="#F7E664"/>
<path d="M138.399 53.8C138.099 53.8 137.799 53.5 137.699 53.2L137.299 48.1C137.299 47.7 137.499 47.4 137.899 47.4C138.299 47.4 138.599 47.6 138.599 48L138.999 53.1C139.099 53.5 138.799 53.8 138.399 53.8C138.499 53.8 138.399 53.8 138.399 53.8Z" fill="#F7E664"/>
<path d="M158.399 80.3C158.299 80.3 158.099 80.3 157.999 80.2L151.099 75.7C150.799 75.5 150.699 75.1 150.899 74.8C151.099 74.5 151.499 74.4 151.799 74.6L158.699 79.1C158.999 79.3 159.099 79.7 158.899 80C158.799 80.1 158.599 80.3 158.399 80.3Z" fill="#F7E664"/>
<path d="M139.3 113H139.2C138.8 112.9 138.6 112.6 138.6 112.2L139.8 104.5C139.9 104.1 140.2 103.9 140.6 103.9C141 104 141.2 104.3 141.2 104.7L140 112.4C139.9 112.7 139.6 113 139.3 113Z" fill="#F7E664"/>
<path d="M155.099 164.6C154.999 164.6 154.899 164.6 154.899 164.6L148.399 162C148.099 161.9 147.899 161.5 147.999 161.1C148.099 160.8 148.499 160.6 148.899 160.7L155.399 163.3C155.699 163.4 155.899 163.8 155.799 164.2C155.599 164.4 155.299 164.6 155.099 164.6Z" fill="#F7E664"/>
<path d="M160.2 150C160.1 150 160.1 150 160 150L152.6 147.7C152.2 147.6 152 147.2 152.2 146.9C152.3 146.5 152.7 146.3 153 146.5L160.4 148.8C160.8 148.9 161 149.3 160.8 149.6C160.8 149.8 160.5 150 160.2 150Z" fill="#F7E664"/>
<path d="M137.6 161.4C137.2 161.4 136.9 161.1 136.9 160.8L136.6 154.2C136.6 153.8 136.9 153.5 137.2 153.5C137.6 153.5 137.9 153.8 137.9 154.1L138.2 160.7C138.3 161.1 138 161.4 137.6 161.4Z" fill="#F7E664"/>
<path d="M172.1 169.4C172 169.4 171.9 169.4 171.8 169.3L164.9 166.2C164.6 166 164.4 165.6 164.6 165.3C164.8 165 165.2 164.8 165.5 165L172.4 168.1C172.7 168.3 172.9 168.7 172.7 169C172.7 169.2 172.4 169.4 172.1 169.4Z" fill="#F7E664"/>
<path d="M171.1 140.6C170.8 140.6 170.5 140.3 170.4 140L169.5 129.9C169.5 129.5 169.7 129.2 170.1 129.2C170.5 129.2 170.8 129.4 170.8 129.8L171.7 139.9C171.8 140.2 171.6 140.6 171.1 140.6C171.2 140.6 171.1 140.6 171.1 140.6Z" fill="#F7E664"/>
<path d="M152.2 133.8C151.9 133.8 151.6 133.6 151.5 133.2C151.4 132.8 151.7 132.5 152 132.4L157.2 131.5C157.6 131.4 157.9 131.7 158 132C158.1 132.4 157.8 132.7 157.5 132.8L152.3 133.7C152.3 133.8 152.2 133.8 152.2 133.8Z" fill="#F7E664"/>
<path d="M176.2 157.5C176 157.5 175.8 157.4 175.6 157.2L173.1 153C172.9 152.7 173 152.3 173.3 152.1C173.6 151.9 174 152 174.2 152.3L176.7 156.5C176.9 156.8 176.8 157.2 176.5 157.4C176.4 157.5 176.3 157.5 176.2 157.5Z" fill="#F7E664"/>
<path d="M88.9986 117.3C88.8986 117.3 88.7986 117.3 88.5986 117.2L85.1986 115.1C84.8986 114.9 84.7986 114.5 84.9986 114.2C85.1986 113.9 85.5986 113.8 85.8986 114L89.2986 116.1C89.5986 116.3 89.6986 116.7 89.4986 117C89.3986 117.2 89.1986 117.3 88.9986 117.3Z" fill="#F7E664"/>
<path d="M120.499 154.5C120.399 154.5 120.399 154.5 120.299 154.5C119.899 154.4 119.699 154.1 119.799 153.7L120.299 151.5C120.399 151.1 120.799 150.9 121.099 151C121.499 151.1 121.699 151.4 121.599 151.8L121.099 154C121.099 154.3 120.799 154.5 120.499 154.5Z" fill="#F7E664"/>
<path d="M28.2993 123.8C28.0993 123.8 27.7993 123.7 27.6993 123.4L23.7993 115.9C23.5993 115.6 23.7993 115.2 24.0993 115C24.3993 114.8 24.7993 115 24.9993 115.3L28.8993 122.8C29.0993 123.1 28.8993 123.5 28.5993 123.7C28.4993 123.8 28.3993 123.8 28.2993 123.8Z" fill="#F7E664"/>
<path d="M112.7 122.1H112.6C112.2 122 112 121.7 112 121.3L112.9 116C113 115.6 113.3 115.4 113.7 115.4C114.1 115.5 114.3 115.8 114.3 116.2L113.4 121.5C113.3 121.9 113 122.1 112.7 122.1Z" fill="#F7E664"/>
<path d="M119.2 137.6C118.9 137.6 118.6 137.4 118.5 137L118 134C117.9 133.6 118.2 133.3 118.5 133.2C118.9 133.1 119.2 133.4 119.3 133.7L119.9 136.8C120 137.2 119.7 137.5 119.4 137.6C119.3 137.6 119.3 137.6 119.2 137.6Z" fill="#F7E664"/>
<path d="M48.7996 131.4C48.5996 131.4 48.2996 131.3 48.1996 131.1L47.1996 129.3C46.9996 129 47.0996 128.6 47.4996 128.4C47.7996 128.2 48.1996 128.3 48.3996 128.7L49.3996 130.5C49.5996 130.8 49.4996 131.2 49.0996 131.4C48.9996 131.4 48.8996 131.4 48.7996 131.4Z" fill="#F7E664"/>
<path d="M89.4001 131.5C89.2001 131.5 88.9001 131.4 88.8001 131.2L86.6001 127.5C86.4001 127.2 86.5001 126.8 86.8001 126.6C87.1001 126.4 87.5001 126.5 87.7001 126.8L89.9001 130.5C90.1001 130.8 90.0001 131.2 89.7001 131.4C89.6001 131.4 89.5001 131.5 89.4001 131.5Z" fill="#F7E664"/>
<path d="M134.999 150C134.899 150 134.899 150 134.999 150L132.799 149.8C132.399 149.8 132.199 149.4 132.199 149.1C132.199 148.7 132.599 148.5 132.899 148.5L135.099 148.7C135.499 148.7 135.699 149.1 135.699 149.4C135.599 149.8 135.299 150 134.999 150Z" fill="#F7E664"/>
<path d="M83.4989 169.8C83.1989 169.8 82.8989 169.6 82.7989 169.2L81.7989 163.9C81.6989 163.5 81.9989 163.2 82.2989 163.1C82.6989 163 82.9989 163.3 83.0989 163.6L84.0989 168.9C84.1989 169.3 83.8989 169.6 83.5989 169.7C83.4989 169.7 83.4989 169.8 83.4989 169.8Z" fill="#F7E664"/>
<path d="M60.2001 150.6C59.9001 150.6 59.6001 150.4 59.6001 150.1L57.0001 141.2C56.9001 140.8 57.1001 140.5 57.5001 140.4C57.9001 140.3 58.2001 140.5 58.3001 140.9L60.9001 149.8C61.0001 150.2 60.8001 150.5 60.4001 150.6C60.3001 150.6 60.3001 150.6 60.2001 150.6Z" fill="#F7E664"/>
<path d="M33.7002 135.9C33.4002 135.9 33.2002 135.7 33.1002 135.5C33.0002 135.2 33.2002 134.8 33.5002 134.6L36.5002 133.5C36.8002 133.4 37.2002 133.6 37.4002 133.9C37.5002 134.2 37.3002 134.6 37.0002 134.8L34.0002 135.9C33.9002 135.9 33.8002 135.9 33.7002 135.9Z" fill="#F7E664"/>
<path d="M75.8986 154.7C75.6986 154.7 75.4986 154.6 75.2986 154.4L73.9986 152.5C73.7986 152.2 73.8986 151.8 74.1986 151.6C74.4986 151.4 74.8986 151.5 75.0986 151.8L76.3986 153.7C76.5986 154 76.4986 154.4 76.1986 154.6C76.0986 154.6 75.9986 154.7 75.8986 154.7Z" fill="#F7E664"/>
<path d="M68.9988 168C68.7988 168 68.6988 167.9 68.5988 167.8L64.5988 164.4C64.2988 164.2 64.2988 163.7 64.4988 163.5C64.6988 163.2 65.1988 163.2 65.3988 163.4L69.3988 166.8C69.6988 167 69.6988 167.5 69.4988 167.7C69.3988 167.9 69.1988 168 68.9988 168Z" fill="#F7E664"/>
<path d="M38.6999 165.3C38.4999 165.3 38.3999 165.2 38.1999 165.1L36.7999 163.9C36.4999 163.7 36.4999 163.2 36.6999 163C36.8999 162.7 37.3999 162.7 37.5999 162.9L38.9999 164.1C39.2999 164.3 39.2999 164.8 39.0999 165C38.9999 165.2 38.8999 165.3 38.6999 165.3Z" fill="#F7E664"/>
<path d="M133.098 138.7C132.698 138.7 132.398 138.4 132.398 138L132.898 128.9C132.898 128.5 133.198 128.2 133.598 128.3C133.998 128.3 134.298 128.6 134.198 129L133.698 138.1C133.798 138.4 133.498 138.7 133.098 138.7Z" fill="#F7E664"/>
<path d="M60.9987 128.1C60.6987 128.1 60.3987 127.9 60.2987 127.5C60.1987 127.1 60.4987 126.8 60.8987 126.7L66.6987 125.8C67.0987 125.7 67.3987 126 67.4987 126.4C67.5987 126.8 67.2987 127.1 66.8987 127.2L61.0987 128.1C60.9987 128.1 60.9987 128.1 60.9987 128.1Z" fill="#F7E664"/>
<path d="M120.499 171.5C120.399 171.5 120.299 171.5 120.199 171.4L110.699 166.9C110.399 166.7 110.199 166.3 110.399 166C110.599 165.7 110.999 165.5 111.299 165.7L120.799 170.2C121.099 170.4 121.299 170.8 121.099 171.1C120.999 171.4 120.799 171.5 120.499 171.5Z" fill="#F7E664"/>
<path d="M106.999 153C106.999 153 106.899 153 106.999 153C106.599 153 106.299 152.6 106.299 152.3L106.699 147.8C106.699 147.4 107.099 147.2 107.399 147.2C107.799 147.2 107.999 147.6 107.999 147.9L107.599 152.4C107.599 152.7 107.299 153 106.999 153Z" fill="#F7E664"/>
<path d="M92.9999 151.6C92.7999 151.6 92.5999 151.5 92.4999 151.4L87.1999 145.1C86.9999 144.8 86.9999 144.4 87.2999 144.2C87.5999 144 87.9999 144 88.1999 144.3L93.4999 150.6C93.6999 150.9 93.6999 151.3 93.3999 151.5C93.2999 151.5 93.0999 151.6 92.9999 151.6Z" fill="#F7E664"/>
<path d="M34.9993 151.8C34.6993 151.8 34.4993 151.6 34.3993 151.4C34.2993 151.1 34.3993 150.7 34.7993 150.5L43.6993 146.9C43.9993 146.8 44.3993 146.9 44.5993 147.3C44.6993 147.6 44.5993 148 44.1993 148.2L35.2993 151.8C35.0993 151.8 34.9993 151.8 34.9993 151.8Z" fill="#F7E664"/>
<path d="M56.2998 116.6C56.0998 116.6 55.7998 116.5 55.6998 116.3C55.4998 116 55.5998 115.6 55.8998 115.4L58.2998 114C58.5998 113.8 58.9998 113.9 59.1998 114.2C59.3998 114.5 59.2998 114.9 58.9998 115.1L56.5998 116.5C56.5998 116.5 56.3998 116.6 56.2998 116.6Z" fill="#F7E664"/>
<path d="M51.7986 160.8C51.5986 160.8 51.2986 160.7 51.1986 160.5L49.9986 158.6C49.7986 158.3 49.8986 157.9 50.1986 157.7C50.4986 157.5 50.8986 157.6 51.0986 157.9L52.2986 159.8C52.4986 160.1 52.3986 160.5 52.0986 160.7C51.9986 160.8 51.8986 160.8 51.7986 160.8Z" fill="#F7E664"/>
<path d="M105.7 134.8L100.1 134.1C99.7 134.1 99.5 133.7 99.5 133.3C99.5 132.9 99.9 132.7 100.3 132.7L105.8 133.4C106.2 133.4 106.4 133.8 106.4 134.2C106.3 134.5 106.1 134.8 105.7 134.8Z" fill="#F7E664"/>
<path d="M70.8994 140.2C70.6994 140.2 70.4994 140.1 70.2994 139.9C70.0994 139.6 70.1994 139.2 70.4994 139L77.6994 133.9C77.9994 133.7 78.3994 133.8 78.5994 134.1C78.7994 134.4 78.6994 134.8 78.3994 135L71.1994 140.1C71.1994 140.1 71.0994 140.2 70.8994 140.2Z" fill="#F7E664"/>
<path d="M98.6001 173.8C98.3001 173.8 98.0001 173.6 97.9001 173.3L95.5001 163.9C95.4001 163.5 95.6001 163.2 96.0001 163.1C96.4001 163 96.7001 163.2 96.8001 163.6L99.2001 173C99.3001 173.4 99.1001 173.7 98.7001 173.8C98.7001 173.8 98.7001 173.8 98.6001 173.8Z" fill="#F7E664"/>
</g>
<path d="M24.5 106C29.1944 106 33 102.194 33 97.5C33 92.8056 29.1944 89 24.5 89C19.8056 89 16 92.8056 16 97.5C16 102.194 19.8056 106 24.5 106Z" fill="#DD00A0"/>
<path d="M22.5 58C28.8513 58 34 52.8513 34 46.5C34 40.1487 28.8513 35 22.5 35C16.1487 35 11 40.1487 11 46.5C11 52.8513 16.1487 58 22.5 58Z" fill="#F70400"/>
<path d="M183.5 57C189.299 57 194 52.299 194 46.5C194 40.701 189.299 36 183.5 36C177.701 36 173 40.701 173 46.5C173 52.299 177.701 57 183.5 57Z" fill="#DD00A0"/>
<path d="M19.5 161C24.1944 161 28 157.194 28 152.5C28 147.806 24.1944 144 19.5 144C14.8056 144 11 147.806 11 152.5C11 157.194 14.8056 161 19.5 161Z" fill="#DD00A0"/>
<path d="M129 21C132.866 21 136 17.866 136 14C136 10.134 132.866 7 129 7C125.134 7 122 10.134 122 14C122 17.866 125.134 21 129 21Z" fill="#8BE405"/>
<path d="M153 14C156.866 14 160 10.866 160 7C160 3.13401 156.866 0 153 0C149.134 0 146 3.13401 146 7C146 10.866 149.134 14 153 14Z" fill="#0899FD"/>
<path d="M29 136C31.2091 136 33 134.209 33 132C33 129.791 31.2091 128 29 128C26.7909 128 25 129.791 25 132C25 134.209 26.7909 136 29 136Z" fill="#0899FD"/>
<path d="M164 43C166.209 43 168 41.2091 168 39C168 36.7909 166.209 35 164 35C161.791 35 160 36.7909 160 39C160 41.2091 161.791 43 164 43Z" fill="#0899FD"/>
<path d="M11 118C17.0751 118 22 113.075 22 107C22 100.925 17.0751 96 11 96C4.92487 96 0 100.925 0 107C0 113.075 4.92487 118 11 118Z" fill="#FFCA06"/>
<path d="M197 103C200.866 103 204 99.866 204 96C204 92.134 200.866 89 197 89C193.134 89 190 92.134 190 96C190 99.866 193.134 103 197 103Z" fill="#0899FD"/>
<path d="M179 161C185.075 161 190 156.075 190 150C190 143.925 185.075 139 179 139C172.925 139 168 143.925 168 150C168 156.075 172.925 161 179 161Z" fill="#FFCA06"/>
<path d="M188 126C190.209 126 192 124.209 192 122C192 119.791 190.209 118 188 118C185.791 118 184 119.791 184 122C184 124.209 185.791 126 188 126Z" fill="#F70400"/>
<path d="M87 14C90.866 14 94 10.866 94 7C94 3.13401 90.866 0 87 0C83.134 0 80 3.13401 80 7C80 10.866 83.134 14 87 14Z" fill="#FFCA06"/>
<path fill-rule="evenodd" clip-rule="evenodd" d="M51.2 38.8C46 38 42 33.5 42 28C42 21.9 46.9 17 53 17C59.1 17 64 21.9 64 28C64 28.5 64 28.9 63.9 29.4C59.3 32.1 55.1 35.3 51.2 38.8Z" fill="#0899FD"/>
<path fill-rule="evenodd" clip-rule="evenodd" d="M173.6 71.5C174.8 68.3 177.9 66 181.5 66C186.2 66 190 69.8 190 74.5C190 79.2 186.2 83 181.5 83C179.3 83 177.4 82.2 175.9 80.9C175.3 77.6 174.5 74.5 173.6 71.5Z" fill="#8BE405"/>
<path d="M139.5 57.6C139.1 57.2 138.7 57 138.1 57H65.9C65.4 57 64.9 57.2 64.5 57.6C64.1 58 64 58.5 64 59.1L70.5 133.7C70.6 134.5 71.1 135.1 71.8 135.4L101.4 144C101.6 144 101.7 144.1 101.9 144.1C102.1 144.1 102.2 144.1 102.4 144L132.1 135.4C132.8 135.2 133.4 134.5 133.4 133.7L139.9 59.1C140 58.5 139.9 58 139.5 57.6ZM77.9 108.1L90.9 111.8V74H98.3V123.2L77.9 117.4V108.1ZM126.2 94.8L124.3 118L105.8 123.2V114.5L118.3 111L118.8 103.9L105.8 106.2V74H128L127.4 81.6H113.2V96.7L126.2 94.8Z" fill="white"/>
</g>
<defs>
<clipPath id="clip0_5505_153128">
<rect width="204" height="169" fill="white"/>
</clipPath>
</defs>
</svg>
