<svg width="20" height="20" viewBox="0 0 20 20" fill="none" xmlns="http://www.w3.org/2000/svg">
<path d="M10 20C15.5228 20 20 15.5228 20 10C20 4.47715 15.5228 0 10 0C4.47715 0 0 4.47715 0 10C0 15.5228 4.47715 20 10 20Z" fill="#F0F0F0"/>
<path d="M2.06645 3.91211C1.28094 4.9341 0.688633 6.11203 0.34375 7.39168H5.54602L2.06645 3.91211Z" fill="#0052B4"/>
<path d="M19.6553 7.39165C19.3104 6.11204 18.7181 4.9341 17.9326 3.91211L14.4531 7.39165H19.6553Z" fill="#0052B4"/>
<path d="M0.34375 12.6094C0.688672 13.889 1.28098 15.0669 2.06645 16.0889L5.5459 12.6094H0.34375Z" fill="#0052B4"/>
<path d="M16.0889 2.06746C15.0669 1.28195 13.889 0.689648 12.6094 0.344727V5.54695L16.0889 2.06746Z" fill="#0052B4"/>
<path d="M3.91016 17.9326C4.93215 18.7181 6.11008 19.3104 7.38969 19.6553V14.4531L3.91016 17.9326Z" fill="#0052B4"/>
<path d="M7.38965 0.344727C6.11004 0.689648 4.93211 1.28195 3.91016 2.06742L7.38965 5.54691V0.344727Z" fill="#0052B4"/>
<path d="M12.6094 19.6553C13.889 19.3104 15.0669 18.7181 16.0889 17.9326L12.6094 14.4531V19.6553Z" fill="#0052B4"/>
<path d="M14.4531 12.6094L17.9326 16.0889C18.7181 15.067 19.3104 13.889 19.6553 12.6094H14.4531Z" fill="#0052B4"/>
<path d="M19.9154 8.69566H11.3044H11.3044V0.0846484C10.8774 0.0290625 10.4421 0 10 0C9.55785 0 9.12262 0.0290625 8.69566 0.0846484V8.69559V8.69563H0.0846484C0.0290625 9.12262 0 9.55793 0 10C0 10.4421 0.0290625 10.8774 0.0846484 11.3043H8.69559H8.69563V19.9154C9.12262 19.9709 9.55785 20 10 20C10.4421 20 10.8774 19.971 11.3043 19.9154V11.3044V11.3044H19.9154C19.9709 10.8774 20 10.4421 20 10C20 9.55793 19.9709 9.12262 19.9154 8.69566Z" fill="#CB3D40"/>
<path d="M12.6094 12.6084L17.0717 17.0708C17.277 16.8656 17.4727 16.6511 17.6595 16.4288L13.8391 12.6084H12.6094V12.6084Z" fill="#CB3D40"/>
<path d="M7.39206 12.6084H7.39199L2.92969 17.0707C3.13484 17.2759 3.34934 17.4717 3.57168 17.6585L7.39206 13.838V12.6084Z" fill="#CB3D40"/>
<path d="M7.39 7.39118V7.3911L2.92766 2.92871C2.72242 3.13387 2.52664 3.34836 2.33984 3.5707L6.16027 7.39114H7.39V7.39118Z" fill="#CB3D40"/>
<path d="M12.6094 7.39102L17.0718 2.92859C16.8666 2.72336 16.6521 2.52758 16.4298 2.34082L12.6094 6.16125V7.39102V7.39102Z" fill="#CB3D40"/>
</svg>
