<svg width="48" height="48" viewBox="0 0 48 48" fill="none" xmlns="http://www.w3.org/2000/svg">
<circle cx="24" cy="24" r="23" fill="white" stroke="#F4E041" stroke-width="2"/>
<path d="M31.23 27.2598L28.69 26.9698C28.08 26.8998 27.48 27.1098 27.05 27.5398L25.21 29.3798C22.38 27.9398 20.06 25.6298 18.62 22.7898L20.47 20.9398C20.9 20.5098 21.11 19.9098 21.04 19.2998L20.75 16.7798C20.63 15.7698 19.78 15.0098 18.76 15.0098H17.03C15.9 15.0098 14.96 15.9498 15.03 17.0798C15.56 25.6198 22.39 32.4398 30.92 32.9698C32.05 33.0398 32.99 32.0998 32.99 30.9698V29.2398C33 28.2298 32.24 27.3798 31.23 27.2598Z" fill="#7E7E7E"/>
</svg>
