<svg width="62" height="60" viewBox="0 0 62 60" fill="none" xmlns="http://www.w3.org/2000/svg">
<path d="M40.6544 33.2187C40.6544 34.5081 40.6634 35.7975 40.6524 37.0879C40.6072 42.4263 36.6395 46.7618 31.4257 47.3477C26.053 47.9527 21.0613 44.169 20.1568 38.8194C20.0935 38.4436 20.0875 38.0546 20.0825 37.6718C20.0493 34.9282 20.0071 32.1846 20 29.44C19.993 26.8441 20.803 24.5156 22.5467 22.587C25.3204 19.5188 28.7916 18.347 32.8085 19.351C36.7973 20.3479 39.3097 22.989 40.3539 26.9657C40.564 27.7647 40.6112 28.6189 40.6413 29.451C40.6886 30.7052 40.6544 31.9625 40.6544 33.2187ZM38.8887 33.1936C38.8887 31.9715 38.9007 30.7484 38.8836 29.5264C38.8756 28.9757 38.8485 28.4199 38.762 27.8772C38.0214 23.2513 33.4155 20.0293 28.8208 20.9077C24.6752 21.6996 21.798 25.1246 21.7658 29.3405C21.7467 31.9353 21.7568 34.5312 21.7738 37.126C21.7779 37.6748 21.81 38.2386 21.9346 38.7702C22.7467 42.2444 24.8682 44.5508 28.3333 45.388C31.8045 46.2261 34.7371 45.1197 37.0355 42.3921C37.7872 41.5007 38.2997 40.4596 38.6173 39.341C38.8736 38.4375 38.9037 37.4989 38.8927 36.5592C38.8786 35.4377 38.8887 34.3151 38.8887 33.1936Z" fill="#7E7E7E"/>
<path d="M30.3361 58.0968C31.5652 57.2818 32.7903 56.4698 34.0153 55.6577C35.2414 54.8437 36.4645 54.0257 37.6966 53.2207C37.8724 53.1061 38.0825 53.0116 38.2875 52.9815C38.6644 52.9262 39 53.1373 39.1468 53.4599C39.3015 53.8005 39.2231 54.2146 38.9448 54.4739C38.8603 54.5533 38.7588 54.6166 38.6624 54.6809C36.1268 56.3642 33.5852 58.0396 31.0597 59.738C30.5431 60.0857 30.113 60.0877 29.5944 59.739C27.097 58.0586 24.5826 56.4024 22.0752 54.7382C21.9636 54.6638 21.847 54.5955 21.7465 54.5091C21.3898 54.2015 21.3234 53.7041 21.5837 53.3342C21.8309 52.9815 22.3003 52.8569 22.6993 53.0649C22.9505 53.1955 23.1816 53.3644 23.4188 53.5212C25.6067 54.9734 27.7925 56.4266 29.9803 57.8788C30.0899 57.9491 30.2044 58.0154 30.3361 58.0968Z" fill="#7E7E7E"/>
<path d="M22.4249 48.8945C22.5616 48.9649 22.8098 49.0634 23.0269 49.2071C25.3152 50.7186 27.5985 52.2391 29.8849 53.7536C30.4195 54.1074 30.2668 54.0822 30.7491 53.7637C33.0244 52.2612 35.2927 50.7507 37.5649 49.2443C37.7177 49.1428 37.8714 49.0362 38.0393 48.9669C38.4352 48.8031 38.8634 48.9508 39.0885 49.3076C39.3005 49.6432 39.2633 50.0854 38.983 50.3719C38.8794 50.4784 38.7508 50.5628 38.6262 50.6462C36.1047 52.3205 33.5762 53.9848 31.0647 55.6731C30.5502 56.0198 30.122 56.0349 29.6015 55.6842C27.09 53.9948 24.5615 52.3306 22.04 50.6563C21.9154 50.5729 21.7857 50.4904 21.6792 50.3859C21.4219 50.1337 21.3566 49.7357 21.5013 49.4111C21.635 49.1106 21.9717 48.8935 22.4249 48.8945Z" fill="#7E7E7E"/>
<path d="M29.4419 25.8084C29.4419 25.0898 29.4369 24.3703 29.4459 23.6517C29.4479 23.4708 29.467 23.2809 29.5273 23.113C29.6539 22.7623 29.9424 22.5975 30.3012 22.5703C30.6469 22.5442 31.0036 22.7784 31.1252 23.114C31.1805 23.2668 31.2036 23.4397 31.2046 23.6035C31.2107 25.1079 31.2087 26.6124 31.2076 28.1168C31.2076 28.1832 31.2097 28.2515 31.2016 28.3168C31.1413 28.8183 30.7634 29.167 30.2991 29.15C29.8509 29.1339 29.4881 28.7962 29.453 28.3138C29.4248 27.9148 29.4439 27.5118 29.4429 27.1108C29.4419 26.6777 29.4419 26.2425 29.4419 25.8084Z" fill="#7E7E7E"/>
</svg>
