<svg width="21" height="41" viewBox="0 0 21 41" fill="none" xmlns="http://www.w3.org/2000/svg">
<path d="M20.6544 14.2187C20.6544 15.5081 20.6634 16.7975 20.6524 18.0879C20.6072 23.4263 16.6395 27.7618 11.4257 28.3477C6.05304 28.9527 1.0613 25.169 0.156822 19.8194C0.0935086 19.4436 0.0874787 19.0546 0.0824538 18.6718C0.0492895 15.9282 0.00708028 13.1846 4.54188e-05 10.44C-0.00698944 7.84409 0.803025 5.51555 2.54667 3.587C5.32041 0.518791 8.79161 -0.653016 12.8085 0.350959C16.7973 1.3479 19.3097 3.98899 20.3539 7.9657C20.564 8.76466 20.6112 9.61889 20.6413 10.451C20.6886 11.7052 20.6544 12.9625 20.6544 14.2187ZM18.8887 14.1936C18.8887 12.9715 18.9007 11.7484 18.8836 10.5264C18.8756 9.97566 18.8485 9.4199 18.762 8.87721C18.0214 4.25129 13.4155 1.02932 8.82076 1.90767C4.67521 2.6996 1.79796 6.12457 1.7658 10.3405C1.7467 12.9353 1.75675 15.5312 1.77384 18.126C1.77786 18.6748 1.81002 19.2386 1.93463 19.7702C2.74666 23.2444 4.86817 25.5508 8.33334 26.388C11.8045 27.2261 14.7371 26.1197 17.0355 23.3921C17.7872 22.5007 18.2997 21.4596 18.6173 20.341C18.8736 19.4375 18.9037 18.4989 18.8927 17.5592C18.8786 16.4377 18.8887 15.3151 18.8887 14.1936Z" fill="#7E7E7E"/>
<path d="M10.3341 39.0973C11.5632 38.2823 12.7883 37.4703 14.0134 36.6582C15.2395 35.8442 16.4625 35.0261 17.6946 34.2212C17.8705 34.1066 18.0805 34.0121 18.2856 33.982C18.6624 33.9267 18.9981 34.1377 19.1448 34.4603C19.2996 34.801 19.2212 35.2151 18.9428 35.4744C18.8584 35.5538 18.7569 35.6171 18.6604 35.6814C16.1248 37.3647 13.5832 39.04 11.0577 40.7385C10.5412 41.0862 10.111 41.0882 9.59247 40.7395C7.09509 39.0591 4.58063 37.4029 2.0732 35.7387C1.96165 35.6643 1.84507 35.596 1.74458 35.5095C1.38781 35.202 1.32148 34.7046 1.58177 34.3347C1.82899 33.982 2.29832 33.8574 2.6973 34.0654C2.94854 34.196 3.17969 34.3649 3.41686 34.5216C5.60471 35.9738 7.79054 37.427 9.97838 38.8792C10.0879 38.9496 10.2025 39.0159 10.3341 39.0973Z" fill="#7E7E7E"/>
<path d="M2.4249 29.8945C2.56157 29.9649 2.8098 30.0634 3.02688 30.2071C5.31522 31.7186 7.59854 33.2391 9.88487 34.7536C10.4195 35.1074 10.2668 35.0822 10.7492 34.7637C13.0244 33.2612 15.2927 31.7507 17.5649 30.2443C17.7177 30.1428 17.8714 30.0362 18.0393 29.9669C18.4352 29.8031 18.8634 29.9508 19.0885 30.3076C19.3005 30.6432 19.2633 31.0854 18.983 31.3719C18.8794 31.4784 18.7508 31.5628 18.6262 31.6462C16.1047 33.3205 13.5762 34.9848 11.0647 36.6731C10.5502 37.0198 10.122 37.0349 9.60146 36.6842C7.09002 34.9948 4.56149 33.3306 2.03999 31.6563C1.91537 31.5729 1.78573 31.4904 1.6792 31.3859C1.42193 31.1337 1.3566 30.7357 1.50132 30.4111C1.63498 30.1106 1.97165 29.8935 2.4249 29.8945Z" fill="#7E7E7E"/>
<path d="M9.4419 6.80888C9.4419 6.09032 9.43687 5.37076 9.44592 4.65219C9.44793 4.4713 9.46702 4.28136 9.52732 4.11353C9.65395 3.76279 9.94238 3.59797 10.3012 3.57084C10.6469 3.54471 11.0036 3.77887 11.1252 4.11453C11.1805 4.26729 11.2036 4.44014 11.2046 4.60396C11.2107 6.10841 11.2087 7.61287 11.2076 9.11732C11.2076 9.18365 11.2097 9.25199 11.2016 9.31731C11.1413 9.8188 10.7634 10.1675 10.2991 10.1504C9.85093 10.1344 9.48813 9.79669 9.45295 9.3143C9.42481 8.91532 9.44391 8.51232 9.4429 8.11134C9.4419 7.67819 9.4419 7.24303 9.4419 6.80888Z" fill="#7E7E7E"/>
</svg>
